<?xml version="1.0" encoding="UTF-8"?>
<svg width="178px" height="16px" viewBox="0 0 178 16" version="1.1" xmlns="http://www.w3.org/2000/svg" xmlns:xlink="http://www.w3.org/1999/xlink">
    <title>app_logo</title>
    <g id="Main-page" stroke="none" stroke-width="1" fill="none" fill-rule="evenodd">
        <g id="app_logo" transform="translate(-0.000000, 0.000000)" fill="#FFFFFF" fill-rule="nonzero">
            <path d="M105.024136,8.01687116 C106.027225,7.23956997 106.135935,7.03804743 106.135935,5.88479664 C106.135935,4.30422776 106.135935,2.72365888 106.135935,1.14308999 L106.135935,0.0237085332 L87.4214899,0.0237085332 L87.4214899,3.14307412 L102.894425,3.14307412 C103.24526,5.54779677 102.793952,6.4402537 100.423763,6.38606277 C96.3932889,6.29461557 92.3529322,6.36066077 88.3257524,6.36066077 L87.4247842,6.36066077 L87.4247842,15.9321343 L106.135935,15.9321343 C106.135935,14.0557733 106.114522,12.2319097 106.135935,10.4063526 C106.154053,9.40890075 106.111228,8.48088103 105.024136,8.01687116 Z M102.981722,12.723015 L90.5625255,12.723015 L90.5625255,9.57824742 C94.2520481,9.57824742 97.8658038,9.56469969 101.477912,9.58840822 C102.259817,9.57992772 102.913671,10.1973373 102.97184,10.9990659 C103.024547,11.5511361 102.981722,12.1184474 102.981722,12.723015 Z" id="Shape"></path>
            <path d="M84.244218,13.8576377 C84.1865692,14.5231701 84.2326882,15.1988633 84.2326882,15.9253605 L81.2398924,15.9253605 C81.2003618,15.8694761 81.1361246,15.8186721 81.142713,15.7814158 C81.3420132,14.5959891 80.6601103,13.8779593 79.9090289,13.1277535 C78.237214,11.4579954 76.6263421,9.72388555 74.9199378,7.94066516 C74.6580476,8.19129823 74.4620417,8.36741876 74.2775656,8.55708703 C72.778697,10.081207 71.3127706,11.6476637 69.7743715,13.1446882 C68.9936421,13.9067482 68.291974,14.6467931 68.6213957,15.9270539 L65.4688303,15.9270539 C65.4688303,14.9397629 65.4391824,13.9626326 65.4885956,12.9905827 C65.5001254,12.7568843 65.737309,12.5062513 65.9217851,12.3131961 C67.1175858,11.0684981 68.3282104,9.83904129 69.5322465,8.60281063 C69.721664,8.40806196 69.8995517,8.19976556 70.1153229,7.96268023 C68.7828123,6.58589184 67.5128918,5.22095771 66.1803811,3.92545571 C65.6318941,3.39370718 65.3798865,2.84841092 65.449065,2.07788359 C65.5083609,1.41404466 65.4605948,0.738351463 65.4605948,0.0118542666 L68.4550377,0.0118542666 C68.4962154,0.0728190663 68.5571584,0.123623066 68.55057,0.160879333 C68.3627996,1.30735626 68.9969363,2.02369266 69.7298995,2.75357679 C71.4198327,4.44704345 73.0488228,6.2014749 74.7222848,7.95251943 C74.8633799,7.87390876 74.9978156,7.78327305 75.1241793,7.68156476 C76.9936472,5.77302784 78.8960573,3.89666678 80.6979938,1.92377812 C81.0834171,1.50041146 81.0982411,0.721416797 81.3107181,0.0135477333 L84.229394,0.0135477333 C84.229394,1.0109996 84.2623362,1.93901932 84.2096287,2.86365212 C84.1931576,3.12613945 83.9724451,3.41741572 83.7747921,3.62401865 C82.5427551,4.91105331 81.2909528,6.17776637 80.0490331,7.45464023 C79.8974992,7.61043916 79.7657305,7.79333356 79.5960783,7.9846953 C80.913765,9.34962942 82.1820384,10.7145635 83.514549,12.011759 C84.0646832,12.5435075 84.3133966,13.0888038 84.244218,13.8576377 Z" id="Path"></path>
            <polygon id="Path" points="127.971649 6.41823864 127.971649 15.9270539 109.321442 15.9270539 109.321442 6.4300929 112.345533 6.4300929 112.345533 12.7094673 124.898145 12.7094673 124.898145 6.41823864"></polygon>
            <path d="M37.4515179,15.9676971 C36.5209017,16.0151142 35.5869913,15.9829383 34.6514338,15.9829383 L21.7150451,15.9829383 L21.7150451,0.00846733329 L24.7687839,0.00846733329 L24.7687839,12.7501105 L40.3257219,12.7501105 C40.4772559,14.4435771 39.1645106,15.8796369 37.4515179,15.9676971 Z" id="Path"></path>
            <path d="M147.135755,3.15154145 C145.87407,3.19218465 144.610738,3.16170225 143.347406,3.16170225 L142.359141,3.16170225 L142.359141,15.9338278 L139.257636,15.9338278 L139.257636,3.16000878 C137.567703,3.16000878 136.011185,3.17863692 134.456315,3.16000878 C132.901445,3.14138065 131.727056,2.16086346 131.399282,0.702788663 C131.362652,0.47029381 131.341738,0.235468264 131.336692,0 L149.970428,0 C150.184552,1.56984359 148.819099,3.09565705 147.135755,3.15154145 Z" id="Path"></path>
            <path d="M15.5449774,9.56469969 C12.497827,9.59010169 9.45067661,9.56469969 6.40352623,9.56469969 L3.07307322,9.56469969 L3.07307322,15.9135062 L0.00780464826,15.9135062 L0.00780464826,6.44194717 L18.6201286,6.44194717 C18.7271906,8.13541383 17.3567965,9.54945849 15.5449774,9.56469969 Z" id="Path"></path>
            <path d="M177.997623,12.7788994 C178.06186,14.4723661 176.816647,15.9304409 175.156361,15.9524559 C170.827761,16.0111628 166.497513,16.0111628 162.165618,15.9524559 C160.719457,15.9355213 159.419889,14.6925167 159.365534,13.231055 C159.271649,10.9855182 159.340827,8.73320756 159.340827,6.3945301 L162.447274,6.3945301 L162.447274,9.84920209 C162.447274,12.5756834 162.643279,12.7788994 165.286888,12.7788994 L177.997623,12.7788994 Z" id="Path"></path>
            <path d="M176.101802,2.93647119 C175.768762,3.06819733 175.415946,3.13925653 175.059182,3.14646105 C169.953146,3.16226674 164.84711,3.16565367 159.741075,3.15662185 C159.607187,3.14583458 159.47407,3.12660579 159.342474,3.09904399 L159.342474,0.0203215999 L177.935033,0.0203215999 C178.160687,1.13462266 177.33878,2.46568745 176.101802,2.93647119 Z" id="Path"></path>
            <path d="M124.912969,3.15323492 C122.580664,3.18202385 120.248359,3.16170225 117.914406,3.16170225 C116.048232,3.16170225 114.182059,3.18202385 112.314238,3.16170225 C110.56995,3.13460678 109.224263,1.70193399 109.349443,0.00846733329 L127.909059,0.00846733329 C128.131419,1.61895413 126.708317,3.12952639 124.912969,3.15323492 Z" id="Path"></path>
            <path d="M62.2717931,0.0372562665 C62.2717931,1.71209479 61.0710511,3.11259172 59.4585321,3.13121985 C55.123343,3.18541078 50.7859578,3.18879772 46.4463764,3.14138065 C44.8569169,3.12613945 43.6775874,1.78660732 43.6001733,0.0372562665 L62.2717931,0.0372562665 Z" id="Path"></path>
            <path d="M15.5449774,3.15323492 C12.0053416,3.17694345 8.46241162,3.16170225 4.92607007,3.16170225 C4.24087301,3.16170225 3.55402885,3.18541078 2.86883179,3.15323492 C1.23544281,3.09342844 -0.0450690836,1.68991263 0.00121621501,0.0101608 L18.6135402,0.0101608 C18.7206022,1.74257719 17.3567965,3.14307412 15.5449774,3.15323492 Z" id="Path"></path>
            <path d="M62.2734402,6.4453341 C62.2734402,8.27089116 60.9359883,9.56131275 59.0451079,9.56808662 C54.9569851,9.58163435 50.8683132,9.58163435 46.7790923,9.56808662 C46.4234211,9.56726373 46.0696443,9.51481307 45.7282372,9.41228769 C44.4714936,9.03295116 43.6709989,7.9237305 43.6051146,6.44872104 L62.2734402,6.4453341 Z" id="Path"></path>
            <path d="M62.2602633,12.8297034 C62.3212064,14.4486575 61.1171702,15.9168931 59.4931214,15.9439886 C55.1315786,16.0151142 50.7689377,16.0185011 46.4051987,15.9541494 C44.8042094,15.9321343 43.6232328,14.5130093 43.6166443,12.8297034 L62.2602633,12.8297034 Z" id="Path"></path>
            <rect id="Rectangle" x="153.101581" y="0.0101608" width="3.02244375" height="15.9050389"></rect>
        </g>
    </g>
</svg>