<?xml version="1.0" encoding="UTF-8"?>
<svg width="15px" height="16px" viewBox="0 0 15 16" version="1.1" xmlns="http://www.w3.org/2000/svg" xmlns:xlink="http://www.w3.org/1999/xlink">
    <title>appearance</title>
    <g id="Settings" stroke="none" stroke-width="1" fill="none" fill-rule="evenodd">
        <g id="Group-4" transform="translate(-283.000000, -212.000000)" fill="#FFFFFF" fill-rule="nonzero">
            <g id="appearance" transform="translate(283.000000, 212.000000)">
                <path d="M13.3334852,1.40412128 C13.2365065,0.595886643 12.7946986,0 12.2560576,0 L1.10429232,0 C0.484729579,0 0,0.76133615 0,1.7323734 C0,2.70341065 0.484875187,3.4647468 1.10443793,3.4647468 L12.2478307,3.46489242 C12.8161758,3.46489242 13.2686532,2.82486602 13.3414573,1.97252891 L13.3413151,1.9723833 C13.5331356,2.02976125 13.701637,2.14917344 13.82164,2.31271047 C13.9416539,2.4763929 14.0064932,2.67546541 14.0066352,2.88007777 L14.0066352,3.74072836 C14.0066352,3.99236968 13.9090886,4.2338335 13.7353271,4.41177187 C13.5615656,4.58972516 13.3258042,4.6896249 13.0800904,4.6896249 L8.77045274,4.6896249 C8.30275932,4.68816862 7.85370374,4.87733814 7.52226316,5.21520109 C7.19082257,5.55306405 7.0041165,6.01206527 7.00338846,6.49104122 L7.00338846,9.10356275 L6.46460185,9.10356275 C6.31586675,9.10356275 6.19528499,9.2270534 6.19528499,9.37937655 L6.19528499,14.8964727 C6.19528499,15.2908226 6.40061434,15.6550501 6.7340716,15.852225 C7.06737597,16.0492583 7.47816572,16.0492583 7.81149921,15.852225 C8.14480358,15.6550464 8.35028582,15.2908226 8.35028582,14.8964727 L8.35028582,9.37937655 C8.35028582,9.30627381 8.32184673,9.23607893 8.2713662,9.18423709 C8.22088749,9.13254065 8.15234972,9.10355902 8.08082335,9.10355902 L7.54218235,9.10355902 L7.54218235,6.49103749 C7.54289332,6.15988497 7.67158069,5.84243665 7.90037116,5.60824246 C8.12901966,5.3740781 8.43901216,5.24213976 8.76237149,5.2414128 L13.0720091,5.2414128 C13.4619114,5.24286907 13.8361608,5.08559277 14.1125979,4.80396699 C14.3890277,4.52247169 14.5447265,4.13993215 14.5454545,3.74073581 L14.5454545,2.88008522 C14.5448858,2.52738102 14.4231655,2.18618895 14.2014844,1.91631761 C13.9799452,1.64647237 13.6725263,1.46515269 13.3333685,1.40416229 L13.3334852,1.40412128 Z M1.10421951,0.551784172 C1.37353637,0.551784172 1.66987083,1.05666986 1.66987083,1.73252252 C1.66987083,2.40837518 1.37083534,2.91326087 1.10421951,2.91326087 C0.837603684,2.91311521 0.538568198,2.40822606 0.538568198,1.7323734 C0.538568198,1.05652074 0.837603684,0.551784172 1.10421951,0.551784172 Z M12.2476123,2.91587048 L1.91744111,2.91587048 C2.11594508,2.55617624 2.2164766,2.14827126 2.2083735,1.73513213 C2.21690541,1.32113556 2.11651659,0.912358222 1.91744111,0.551784172 L12.2476123,0.551784172 C12.5169292,0.551784172 12.8132636,1.05666986 12.8132636,1.73252252 C12.8132636,2.40822606 12.5142282,2.91587048 12.2476123,2.91587048 Z M7.81130286,14.8966069 C7.81130286,15.0937856 7.7086309,15.2759701 7.54197872,15.374539 C7.37518457,15.4729811 7.16984065,15.4729811 7.00319211,15.374539 C6.83653992,15.2759515 6.73387525,15.0937744 6.73387525,14.8966069 L6.73387525,9.6553842 L7.81130286,9.6553842 L7.81130286,14.8966069 Z" id="Shape"></path>
            </g>
        </g>
    </g>
</svg>