<?xml version="1.0" encoding="UTF-8"?>
<svg width="292px" height="632px" viewBox="0 0 292 632" version="1.1" xmlns="http://www.w3.org/2000/svg" xmlns:xlink="http://www.w3.org/1999/xlink">
    <title>arm</title>
    <g id="Mastering" stroke="none" stroke-width="1" fill="none" fill-rule="evenodd">
        <g id="Group-7" transform="translate(-852.000000, -234.000000)" fill-rule="nonzero">
            <g id="arm" transform="translate(853.000000, 235.000000)">
                <g id="AxisB" transform="translate(7.000000, 295.000000)">
                    <path d="M85,292.50028 C85,315.944024 66.0160186,334.959966 42.5724648,335 C19.128911,335.039908 0.0805063533,316.088812 0,292.645205 C-0.0799975882,269.201599 18.8382157,250.120533 42.2814937,250 C41.6669372,251.36569 41.0796943,252.73138 40.519765,253.946845 C35.3574903,265.582526 24.4047275,284.278825 27.8052735,296.283242 C29.8264816,303.425802 42.9643343,311.087324 50.3390125,310.281567 C60.5679643,309.148044 84.8361183,288.662691 84.8361183,288.662691 C85,289.878155 85,291.13459 85,292.50028 Z" id="Path" stroke="#C2CF1B" stroke-width="2" fill="#FFFF3E"></path>
                    <path d="M283,42.5204753 C283.003598,53.7854904 278.51546,64.5903588 270.523273,72.5572077 C262.531086,80.5240565 251.689812,85 240.385336,85 C239.9333,85 239.481265,85 239.015531,84.9317488 C239.152512,84.5495423 239.262096,84.1946363 239.37168,83.8397302 C242.193478,74.857877 250.932833,58.8598041 249.891782,49.6185964 C249.201106,41.3754885 242.103245,35.1458726 233.810273,35.5042557 C224.975031,35.8728119 219.221851,42.8617312 202.565024,54.6145817 C200.261738,49.6831212 198.723704,44.4315565 198.003574,39.039666 C197.702217,18.0456078 216.495939,0 240.385336,0 C251.696938,0 262.544447,4.48155539 270.537817,12.4572648 C278.531188,20.4329742 283.014509,31.2483679 283,42.5204753 Z" id="Path" stroke="#C2CF1B" stroke-width="2" fill="#FFFF3E"></path>
                    <path d="M238.468147,83.1331192 C238.359445,83.4862131 238.250742,83.839307 238.114864,84.219562 C235.777759,91.5258896 231.320953,104.182948 229.350719,110.959635 C224.934678,126.455025 214.281826,159.11621 206.998754,173.430094 C200.775532,185.652575 185.896867,209.269124 176.235927,219.06069 C156.017249,239.540136 84.3822555,288.443641 84.3822555,288.443641 C84.3822555,288.443641 60.2366973,308.814443 50.0594193,309.941627 C42.7219959,310.742879 29.6776876,303.15136 27.6395144,296.021579 C24.2561469,284.043548 35.1535795,265.451796 40.2897759,253.921922 C40.8468766,252.658933 41.4311529,251.355201 42.0426048,249.997148 C54.10859,223.066948 75.1425371,179.011693 98.554353,147.233242 C103.609022,140.375073 114.587982,125.056229 120.294867,118.71412 C134.969714,102.689089 174.401571,73.5995839 201.916909,54.0300336 C218.439699,42.2828712 224.146584,35.3296375 232.910729,35.0172852 C241.143057,34.6294874 248.210941,40.8120682 248.917182,49.0188163 C249.936268,58.2128382 241.267239,74.1292248 238.468147,83.1331192 Z" id="Path" stroke="#020202" fill="#A5A7A4"></path>
                </g>
                <g id="AxisA" transform="translate(2.000000, 22.000000)">
                    <path d="M183.978326,348.598012 C135.759632,238.202561 119.228286,198.380227 119.527865,110.996862 C119.527865,97.722751 118.302313,45.1839278 96.9640762,17.9420787 C93.5189111,13.535509 84.1502406,2.79109526 76.1296783,1.15903241 C59.788974,-2.18669643 12.1285866,-0.609035677 2.35139852,38.152457 C-1.93803635,55.1939133 0.622007315,70.6169072 2.35139852,81.2661173 C4.31228303,93.2753798 13.9532985,115.906651 18.2018817,127.317491 C24.7517806,144.889367 39.1588349,179.557102 45.0959574,197.346587 C50.2705138,212.823983 57.6238307,244.67641 60.9464406,260.657026 C76.1296783,333.74624 47.3972733,441.870404 105.120811,490.424274 C114.652889,498.448583 134.711103,505.099239 153.148864,503.847991 C163.770322,503.127163 182.385108,496.517308 192.053358,486.588926 C241.238878,436.090181 183.978326,348.611613 183.978326,348.598012 Z M55.1454906,74.1667147 C46.6349475,74.1886346 38.949396,69.08741 35.6734711,61.2422437 C32.3975463,53.3970773 34.1765806,44.353408 40.1808109,38.3293137 C46.1850411,32.3052193 55.231679,30.4874013 63.101262,33.7237121 C70.970845,36.9600229 76.1131244,44.6129336 76.1297491,53.1130331 C76.144141,58.6847264 73.9410018,64.0337577 70.0053093,67.9824708 C66.0696168,71.931184 60.7240457,74.1558367 55.1454906,74.1667147 Z" id="Shape" stroke="#020202" fill="#E2E8E8"></path>
                    <circle id="Oval" fill="#000000" cx="150" cy="441" r="21"></circle>
                    <path d="M76,52.9453954 C76.0219163,61.4488332 70.9135817,69.1261844 63.0616169,72.390474 C55.2096521,75.6547636 46.1641402,73.8615772 40.1512815,67.8487185 C34.1384228,61.8358598 32.3452364,52.7903479 35.609526,44.9383831 C38.8738156,37.0864183 46.5511668,31.9780837 55.0546046,32 C66.6099894,32.029949 75.970051,41.3900106 76,52.9453954 L76,52.9453954 Z" id="Path" fill="#000000"></path>
                    <path d="M127.123907,334.401033 C127.000639,333.20112 126.316097,332.129854 125.277574,331.511635 C124.23905,330.893416 122.968681,330.800949 121.851157,331.262236 C121.389884,331.367745 120.934995,331.499307 120.488689,331.656284 C120.120823,331.792163 119.671208,331.982393 119.194344,332.199799 C118.717481,332.417205 118.226992,332.688962 117.709254,332.96072 C116.204035,333.785782 114.827153,334.824807 113.621851,336.045165 C113.088812,336.551791 112.852402,337.294983 112.995116,338.015406 C113.138437,338.466687 113.444206,338.849075 113.85347,339.088847 C114.511223,339.452506 115.224816,339.705032 115.965296,339.83618 L117.886375,340.080762 C118.61107,340.145856 119.338968,340.168541 120.066324,340.148701 C121.383747,340.140578 122.695838,339.980999 123.976607,339.673126 C125.162013,339.482452 126.221698,338.826831 126.919537,337.852352 C127.455155,336.777423 127.528941,335.531362 127.123907,334.401033 Z M77.7344473,110.187647 L80.377635,120.650304 L51.6431877,127.879049 L49,117.443567 L77.7344473,110.187647 Z M115.256812,255.659346 L121.987404,282.345916 C123.036504,286.422276 122.913882,289.533898 121.646787,291.599254 C120.379692,293.664609 117.559383,295.213626 113.335733,296.287068 L95.4192802,300.716712 L93.1167095,291.585666 L109.588946,287.414191 C111.809769,286.857088 113.117738,286.232046 113.485604,285.607004 C113.872201,284.624381 113.872201,283.532358 113.485604,282.549734 L113.117738,281.095833 L91.7269923,286.530979 L89.3971722,277.359169 L110.787918,271.924023 L109.588946,266.842161 L88.1982005,272.277307 L85.8683805,263.119085 L115.256812,255.659346 Z M128.554499,308.162863 L129.916967,313.462131 L122.76401,317.67437 L121.401542,312.334338 C121.332416,311.944709 121.147259,311.584865 120.87018,311.30166 C120.639617,311.098185 120.31855,311.031046 120.02545,311.125018 C119.839076,311.178825 119.660471,311.256468 119.494087,311.356012 C119.33142,311.447844 119.198915,311.584711 119.112596,311.75006 L113.85347,318.421702 C113.095156,319.357933 112.215481,320.189539 111.237532,320.894694 C110.362861,321.522878 109.378828,321.983617 108.335476,322.253481 C106.324115,322.916729 104.113237,322.52883 102.449614,321.220803 C100.896401,319.862016 99.7246787,317.620018 98.8663239,314.304579 L97.1087404,307.374767 L104.234447,303.135352 L106.032905,310.268982 C106.09164,310.582511 106.227394,310.876628 106.428021,311.125018 C106.627025,311.286515 106.898028,311.328095 107.136504,311.233721 C107.337468,311.158286 107.52581,311.052917 107.695116,310.9212 C107.872237,310.758146 108.076607,310.527152 108.3491,310.241807 L113.512853,303.773982 C114.28149,302.738785 115.199787,301.822969 116.237789,301.056409 C117.092225,300.419556 118.064655,299.957745 119.098972,299.697622 C120.205973,299.389965 121.373024,299.366594 122.491517,299.629683 C123.61362,299.976137 124.642867,300.570651 125.502571,301.36893 C126.169318,302.025729 126.701493,302.805683 127.069409,303.665279 C127.707158,305.113798 128.204455,306.619857 128.554499,308.162863 L128.554499,308.162863 Z M94.3565553,173.085881 L97.081491,183.711593 L83.5385604,191.742022 L99.4113111,192.896991 L101.863753,202.585139 L59.177635,198.413664 L56.6434447,188.589637 L70.5269923,189.948424 L94.3565553,173.085881 Z M135.026221,332.362853 C136.238817,337.132195 136.238817,340.814506 135.026221,343.382613 C133.813625,345.95072 131.347558,347.744318 127.546272,348.709057 C124.719611,349.409273 121.797088,349.643361 118.894602,349.402038 C116.109198,349.220685 113.382578,348.520132 110.856041,347.336682 C109.315839,346.595891 107.929228,345.572571 106.768638,344.320176 C106.26046,343.702263 105.804731,343.043242 105.40617,342.349935 C105.014836,341.615348 104.717318,340.834762 104.520566,340.02641 C104.083364,338.430224 104.03664,336.752708 104.384319,335.134778 C104.765029,333.460616 105.514308,331.891846 106.577892,330.542079 C108.224613,328.329905 110.25488,326.429371 112.572751,324.93029 C114.880092,323.366401 117.44378,322.216778 120.148072,321.533324 C124.140103,320.527822 127.287404,320.840343 129.685347,322.525238 C132.08329,324.210133 133.786375,327.525573 135.026221,332.417205 L135.026221,332.362853 Z M155,378.860533 L146.975064,380.885125 L148.187661,385.681642 L140.217224,387.692646 L139.004627,382.896129 L127.382776,385.817521 C126.787906,385.898248 126.251675,386.217155 125.897686,386.700732 C125.655746,387.307185 125.655746,387.982993 125.897686,388.589445 L126.769666,392 L118.513111,391.782594 L117.763753,388.725324 C116.837275,385.029424 116.878149,382.311851 117.9,380.504665 C118.921851,378.697479 121.238046,377.365868 124.834961,376.428305 L136.661183,373.438974 L135.966324,370.721401 L143.950386,368.710397 L144.63162,371.42797 L149.863496,370.069183 L155,378.860533 Z M113.131362,213.604899 L105.106427,215.615904 L106.332648,220.426008 L98.3485861,222.423425 L97.1359897,217.626908 L85.5141388,220.561887 C84.9187341,220.641087 84.381944,220.960327 84.0290488,221.445098 C83.7871082,222.051551 83.7871082,222.727359 84.0290488,223.333812 L84.9010283,226.744366 L76.644473,226.513373 L75.8542416,223.401751 C74.9277635,219.719439 74.9686375,217.001866 76.0041131,215.249031 C77.0395887,213.496196 79.3285347,212.110234 82.9254499,211.172671 L94.751671,208.196928 L94.0568123,205.479355 L102.040874,203.468351 L102.722108,206.185924 L107.953985,204.827137 L113.131362,213.604899 Z M151.498458,357.636285 L152.765553,362.63662 L145.953213,366.821683 L144.944987,362.840438 C144.828615,362.069654 144.454046,361.360853 143.882262,360.829434 C143.242412,360.505968 142.495475,360.466503 141.824936,360.720731 L141.552442,360.720731 L142.91491,366.019999 L135.203342,367.963064 L133.840874,362.663796 L112.450129,368.098943 L110.052185,358.587436 L131.442931,353.152289 L130.925193,351.114109 L138.89563,349.103105 L139.413368,351.154873 L139.94473,351.018994 C143.255527,350.190134 145.776093,350.271662 147.57455,351.277164 C149.373008,352.282666 150.694602,354.511076 151.498458,357.690637 L151.498458,357.636285 Z M117.355013,222.858236 L119.712082,232.179513 L109.929563,234.652505 L110.951414,238.864743 C111.986889,242.941103 111.864267,246.052725 110.610797,248.11808 C109.357326,250.183436 106.523393,251.732453 102.286118,252.805894 L84.3832905,257.317066 L82.0262211,248.009378 L98.5529563,243.85149 C100.773779,243.2808 102.081748,242.669346 102.463239,242.017128 C102.838822,241.041824 102.838822,239.962339 102.463239,238.987034 L101.891003,236.690685 L80.5002571,242.125831 L78.2521851,232.723028 L117.355013,222.858236 Z M97.3267352,143.640974 L99.6838046,152.962251 L89.8876607,155.421654 L90.9503856,159.606717 C91.9994859,163.683077 91.8768638,166.808287 90.6097686,168.860055 C89.3426735,170.911822 86.522365,172.474427 82.2987147,173.547869 L64.3550129,178.05904 L62.0115681,168.751352 L78.5383033,164.593464 C80.759126,164.036362 82.0670951,163.41132 82.4349614,162.759102 C82.805442,161.782861 82.805442,160.70525 82.4349614,159.729008 L81.8491003,157.432659 L60.5401028,162.77269 L58.1830334,153.437826 L97.3267352,143.640974 Z M88.2935733,108.108703 L92.8987147,126.302856 C93.9085279,129.484042 93.7882357,132.915104 92.5580977,136.018181 C91.339481,138.643533 88.9422234,140.534973 86.1,141.113631 C83.7077803,141.725103 81.186173,141.601968 78.8652956,140.760346 C76.1227578,139.678242 73.6324382,138.04564 71.5488432,135.963829 C68.8663824,138.348465 66.3277557,140.889307 63.9462725,143.573035 C61.7790081,145.979942 59.814911,148.561364 58.074036,151.290943 L49.762982,144.578537 C52.4160163,140.715192 55.3874046,137.079168 58.6462725,133.708244 C62.2918948,130.02871 66.1642935,126.579743 70.240874,123.381465 C72.3903404,125.452761 74.7669372,127.275973 77.3257069,128.816612 C78.6543884,129.755638 80.288141,130.162973 81.903599,129.957992 C82.5909317,129.812661 83.1706048,129.355203 83.470437,128.721497 C83.7566892,127.963618 83.7854105,127.132951 83.5521851,126.357208 L78.8789203,108 L88.2935733,108.108703 Z" id="Path_11" fill="#C80000"></path>
                </g>
                <polygon id="Connector" stroke="#000000" fill="#DCE4E6" points="129 0 129 13.7315436 81.1054343 14.5771812 81.9715695 24.8590604 19.663974 36 22.5330466 17.557047 0 17.5167785 0 2.36241611"></polygon>
            </g>
        </g>
    </g>
</svg>