<?xml version="1.0" encoding="UTF-8"?>
<svg width="24px" height="26px" viewBox="0 0 24 26" version="1.1" xmlns="http://www.w3.org/2000/svg" xmlns:xlink="http://www.w3.org/1999/xlink">
    <title>Group 24</title>
    <g id="Navigation-Pane" stroke="none" stroke-width="1" fill="none" fill-rule="evenodd" stroke-linecap="round" stroke-linejoin="round">
        <g id="Group-29" transform="translate(-17.000000, -233.000000)" stroke="#C5C6C6" stroke-width="1.25">
            <g id="Group-24" transform="translate(18.000000, 234.000000)">
                <path d="M6.89568751,12.6314832 L6.89568751,1.89475279 C6.89568751,0.848309719 7.74399723,0 8.7904403,0 C9.83688337,0 10.6851931,0.848309719 10.6851931,1.89475279 L10.6851931,11.3685167" id="Path_43"></path>
                <path d="M10.6851931,10.7373367 L10.6851931,8.21079753 C10.6851931,7.16435446 11.5335028,6.31604474 12.5799459,6.31604474 C13.6263889,6.31604474 14.4746987,7.16435446 14.4746987,8.21079753 L14.4746987,11.3685167" id="Path_44"></path>
                <path d="M14.4746987,9.47376395 C14.4746987,8.42732088 15.3230084,7.57901116 16.3694515,7.57901116 C17.4158945,7.57901116 18.2642042,8.42732088 18.2642042,9.47376395 L18.2642042,11.3685167" id="Path_45"></path>
                <path d="M18.2629916,10.7367304 C18.2629916,9.6902873 19.1113013,8.84197758 20.1577444,8.84197758 C21.2041875,8.84197758 22.0524972,9.6902873 22.0524972,10.7367304 L22.0524972,16.4209887 C22.0524972,20.6062875 18.6599974,23.9993302 14.4746987,24 L12.2113028,24 C9.66111915,24.0004334 7.28168664,22.7183242 5.8794937,20.5882322 L5.63272109,20.2104943 C5.23861251,19.6041734 3.85498823,17.192431 1.48184826,12.9752671 C0.976960675,12.0803329 1.27740566,10.9460656 2.1591087,10.4184119 C3.08660279,9.8619226 4.27374447,10.0076286 5.03913294,10.771897 L6.89568751,12.6284516" id="Path_46"></path>
                <path d="M0,3.2765581 C0.969380831,2.56786872 2.0109674,1.96364689 3.10739457,1.47396609" id="Path_47"></path>
                <path d="M14.4746987,0.578430131 C16.1196157,1.01978675 17.6887574,1.70614569 19.1294242,2.61445569" id="Path_48"></path>
            </g>
        </g>
    </g>
</svg>