<?xml version="1.0" encoding="UTF-8"?>
<svg width="20px" height="20px" viewBox="0 0 20 20" version="1.1" xmlns="http://www.w3.org/2000/svg" xmlns:xlink="http://www.w3.org/1999/xlink">
    <title>general</title>
    <g id="Settings" stroke="none" stroke-width="1" fill="none" fill-rule="evenodd">
        <g id="Group-4" transform="translate(-283.000000, -362.000000)" fill="#FFFFFF" fill-rule="nonzero">
            <g id="general" transform="translate(283.000000, 362.000000)">
                <path d="M14.1075929,15.8668686 C13.6115081,15.8663166 13.1386591,15.6570888 12.804957,15.2901167 C12.4712191,14.9233144 12.307487,14.4329387 12.3537352,13.9391276 C12.4001667,13.4454506 12.6522128,12.9940339 13.0484416,12.6956208 C13.444666,12.3973954 13.9482487,12.2796072 14.4357541,12.371396 C14.9232595,12.4630106 15.3495028,12.7558261 15.6101015,13.1777813 C15.8707001,13.5997275 15.9413951,14.1118855 15.8048981,14.5888103 C15.69947,14.9573594 15.4767457,15.2814145 15.1706048,15.5121039 C14.8642718,15.7427977 14.4910911,15.8673896 14.1076107,15.8668686 L14.1075929,15.8668686 Z M14.1075929,13.2222662 L14.1075929,13.2224407 C13.8071939,13.2208702 13.5266973,13.3723397 13.3633316,13.6244942 C13.199957,13.8764746 13.176042,14.1942487 13.3001436,14.4678684 C13.4242452,14.741314 13.6789143,14.9329103 13.9763507,14.9761981 C14.2736039,15.0194747 14.5724389,14.908318 14.7693178,14.6814616 C14.9662056,14.4546096 15.0339335,14.143112 14.9491004,13.8550183 C14.8642718,13.5669157 14.6385805,13.3418194 14.3500631,13.2577008 C14.2713428,13.2346667 14.1896555,13.2228004 14.1076152,13.2224515 L14.1075929,13.2222662 Z" id="Shape"></path>
                <path d="M5.73107945,13.2226683 L0.440908637,13.2226683 C0.197415108,13.2226683 0,13.0253047 0,12.7818747 L0,7.49308437 C0,7.24965438 0.197415108,7.05229079 0.440908637,7.05229079 L5.73107945,7.05229079 C5.84802713,7.05229079 5.96008634,7.0987101 6.04282374,7.18142144 C6.12538687,7.26396302 6.17181382,7.37616721 6.17181382,7.49308437 L6.17181382,12.7818747 C6.17181382,12.8987919 6.1253824,13.0108218 6.04282374,13.0935377 C5.96008634,13.1762535 5.84802713,13.2226683 5.73107945,13.2226683 Z M0.881495547,12.341099 L5.29022444,12.341099 L5.29022444,7.93369926 L0.881495547,7.93369926 L0.881495547,12.341099 Z" id="Shape"></path>
                <path d="M5.73107945,6.17020329 L0.440908637,6.17020329 C0.197415108,6.17020329 0,5.97301392 0,5.72958393 L0,0.440793582 C0,0.197363593 0.197415108,0 0.440908637,0 L5.73107945,0 C5.84802713,0 5.96008634,0.0464193095 6.04282374,0.129130648 C6.12538687,0.21167223 6.17181382,0.323876426 6.17181382,0.440793582 L6.17181382,5.72958393 C6.17181382,5.84650109 6.1253824,5.95853106 6.04282374,6.04124687 C5.96008634,6.12378845 5.84802713,6.17020329 5.73107945,6.17020329 L5.73107945,6.17020329 Z M0.881495547,5.28881269 L5.29022444,5.28881269 L5.29022444,0.88123425 L0.881495547,0.88123425 L0.881495547,5.28881269 Z" id="Shape"></path>
                <path d="M19.9446991,14.0732348 C19.888321,13.9704521 19.7930184,13.8941959 19.6802576,13.8617368 L18.4767315,13.5179677 C18.4329199,13.1926974 18.3531527,12.8733419 18.2386492,12.565905 L19.1204486,11.6843357 L19.120274,11.6845102 C19.2911556,11.5126234 19.2911556,11.2350144 19.120274,11.0629355 L17.3082822,9.167834 C17.1363505,8.99682278 16.858669,8.99682278 16.686724,9.167834 L15.8049246,10.0494033 L15.8049246,10.0492288 C15.5006872,9.92254175 15.1826514,9.83232094 14.8571265,9.78032202 L14.548528,8.54624116 C14.4898799,8.31031617 14.2512748,8.16634975 14.0150872,8.2246341 L13.2259629,8.4185043 L13.2259629,7.49293248 C13.2259629,7.37601533 13.1795315,7.26381113 13.0967986,7.18126955 C13.0140612,7.09855374 12.902002,7.0521389 12.7850543,7.0521389 L7.49488349,7.0521389 C7.25138996,7.0521389 7.05397485,7.24950249 7.05397485,7.49293248 L7.05397485,12.7817228 C7.05397485,12.89864 7.10040628,13.01067 7.18313921,13.0933858 C7.26570233,13.1761016 7.37793582,13.2225164 7.49488349,13.2225164 L8.39871223,13.2225164 L8.23114622,13.7999546 L8.23114622,13.79978 C8.1985057,13.9126811 8.21229482,14.0337886 8.26937227,14.1363971 C8.32662176,14.2390056 8.42227738,14.3145649 8.5353822,14.3463226 L9.73890835,14.6900918 L9.73890835,14.6902663 C9.78254523,15.0153622 9.86248717,15.3347133 9.97699062,15.6421949 L9.09519122,16.5237642 C8.92430963,16.695651 8.92430963,16.97326 9.09519122,17.1451602 L10.9335468,19.0447736 L10.9337214,19.0447736 C11.1056531,19.2156106 11.3833345,19.2156106 11.5552796,19.0447736 L12.437079,18.1632043 L12.437079,18.1633789 C12.7413163,18.2898917 13.0593521,18.3802867 13.3848771,18.4321114 L13.6669465,19.6618144 C13.7166935,19.8633638 13.9003191,20.0027915 14.1078552,19.996859 C14.1431137,20.001047 14.1785457,20.001047 14.2136318,19.996859 L16.779492,19.3533053 C17.0156573,19.2946725 17.1596568,19.0561297 17.1013572,18.8200037 L16.7971199,17.6035685 C17.0571958,17.4030644 17.2938749,17.1739431 17.5026399,16.9203903 L18.706166,17.2641594 C18.8189223,17.2967914 18.9402356,17.2830059 19.0428709,17.2257691 C19.1455062,17.1687088 19.2210852,17.0730781 19.2528512,16.9600028 L19.9803559,14.4167911 L19.9801813,14.4169657 C20.0157893,14.3023179 20.0030472,14.1780699 19.9449227,14.0730223 L19.9446991,14.0732348 Z M8.95817749,11.2569394 L8.64957898,12.3411437 L7.93552433,12.3411437 L7.93552433,7.93374393 L12.3440745,7.93374393 L12.3440745,8.63890109 L11.4315323,8.86802244 C11.195367,8.92665524 11.0513675,9.16519805 11.109667,9.40132407 L11.4139044,10.6177592 C11.1538285,10.8182633 10.9171493,11.0475589 10.7085632,11.3009375 L9.505037,10.9571683 L9.50486247,10.9571683 C9.39210618,10.924711 9.27096712,10.9384965 9.16833629,10.9955591 C9.06570098,11.0526194 8.99012201,11.1482501 8.95818169,11.2613254 L8.95817749,11.2569394 Z M18.516143,16.2857352 L17.4447483,15.9815772 C17.2653141,15.930101 17.0727874,15.9971081 16.9642136,16.1490995 C16.7137359,16.4968847 16.4014599,16.7956462 16.0427793,17.0304901 C15.8874299,17.1385085 15.818138,17.3336027 15.8708476,17.5154113 L16.1398246,18.5952377 L14.429266,19.0360312 L14.160289,17.9562049 L14.160289,17.9560304 C14.1149077,17.7761204 13.9614798,17.644019 13.7768086,17.6255246 C13.3451496,17.5880067 12.9246796,17.4682993 12.5380266,17.2728567 C12.3704606,17.1903151 12.1692071,17.2220773 12.0353285,17.3522533 L11.2373121,18.1235706 L10.0074669,16.8409753 L10.8054833,16.069658 L10.8053088,16.069658 C10.9400587,15.9389548 10.9772405,15.7374054 10.8979929,15.5672698 C10.7155917,15.174812 10.6078937,14.751816 10.5804888,14.3199212 C10.569143,14.1338999 10.4420704,13.9751022 10.263159,13.9232775 L9.19176425,13.6191196 L9.69884135,11.9222751 L10.7702361,12.2264331 L10.7700616,12.2262586 C10.94967,12.2779091 11.1421967,12.2107277 11.2505962,12.0589105 C11.5010739,11.7109511 11.8135287,11.4121851 12.1720306,11.1773412 C12.3275542,11.0694971 12.3966718,10.8742286 12.3439622,10.6925541 L12.0749853,9.61272772 L13.7855438,9.17193414 L14.0545208,10.2473826 C14.1000764,10.4272926 14.2533301,10.5593939 14.4381755,10.5778884 C14.8698345,10.6150574 15.2903045,10.7347652 15.6769575,10.9305563 C15.8443493,11.0130979 16.045777,10.9813357 16.1794768,10.8511597 L16.9774932,10.0798424 L18.2031828,11.344792 L17.4051664,12.1161093 C17.2704165,12.2468125 17.2332347,12.4485361 17.3126565,12.6184975 C17.4990749,13.0175847 17.6083413,13.4482466 17.6343475,13.8880038 C17.6456933,14.074025 17.772766,14.2328227 17.9518516,14.2846474 L19.0232464,14.5888053 L18.516143,16.2857352 Z" id="Shape"></path>
                <path d="M12.7849384,6.17020329 L7.49476762,6.17020329 C7.25127409,6.17020329 7.05385899,5.97301392 7.05385899,5.72958393 L7.05385899,0.440793582 C7.05385899,0.197363593 7.25127409,0 7.49476762,0 L12.7849384,0 C12.9018861,0 13.0139453,0.0464193095 13.0966827,0.129130648 C13.1794201,0.21167223 13.2258471,0.323876426 13.2258471,0.440793582 L13.2258471,5.72958393 C13.2258471,5.84650109 13.1794157,5.95853106 13.0966827,6.04124687 C13.0139453,6.12378845 12.9018861,6.17020329 12.7849384,6.17020329 L12.7849384,6.17020329 Z M7.93535453,5.28881269 L12.3439047,5.28881269 L12.3439047,0.88123425 L7.93535453,0.88123425 L7.93535453,5.28881269 Z" id="Shape"></path>
            </g>
        </g>
    </g>
</svg>