<?xml version="1.0" encoding="UTF-8"?>
<svg width="21px" height="25px" viewBox="0 0 21 25" version="1.1" xmlns="http://www.w3.org/2000/svg" xmlns:xlink="http://www.w3.org/1999/xlink">
    <title>lock</title>
    <g id="Main-page" stroke="none" stroke-width="1" fill="none" fill-rule="evenodd">
        <g id="Group-3" transform="translate(1.000000, 0.000000)" fill-rule="nonzero">
            <g id="lock">
                <path d="M16.1538462,10.1538462 L2.19230769,10.1538462 C0.923076923,10.1538462 -7.51535586e-16,11.1923077 -7.51535586e-16,12.3461538 L-7.51535586e-16,21.8076923 C-7.51535586e-16,23.0769231 1.03846154,24 2.19230769,24 L16.1538462,24 C17.4230769,24 18.3461538,22.9615385 18.3461538,21.8076923 L18.3461538,12.4615385 C18.4615385,11.0769231 17.4230769,10.1538462 16.1538462,10.1538462 Z M9.23076923,19.3846154 C7.96153846,19.3846154 6.92307692,18.3461538 6.92307692,17.0769231 C6.92307692,15.8076923 7.96153846,14.7692308 9.23076923,14.7692308 C10.5,14.7692308 11.5384615,15.8076923 11.5384615,17.0769231 C11.5384615,18.3461538 10.3846154,19.3846154 9.23076923,19.3846154 Z" id="Shape" stroke="#EB863E" stroke-width="1.5" fill="#F7DA93"></path>
                <path d="M15,5.76923077 L15,9.23076923 L12.6923077,9.23076923 L12.6923077,6.34615385 C12.6923077,4.61538462 12.6923077,2.30769231 9.23076923,2.30769231 C5.76923077,2.30769231 5.76923077,4.61538462 5.76923077,6.34615385 L5.76923077,9.23076923 L3.46153846,9.23076923 L3.46153846,5.76923077 C3.46153846,5.76923077 3.46153846,0 9.23076923,0 C15,0 15,5.76923077 15,5.76923077 Z" id="Path" fill="#777777"></path>
            </g>
        </g>
    </g>
</svg>