<?xml version="1.0" encoding="UTF-8"?>
<svg width="753px" height="151px" viewBox="0 0 753 151" version="1.1" xmlns="http://www.w3.org/2000/svg" xmlns:xlink="http://www.w3.org/1999/xlink">
    <title>logo</title>
    <g id="Page-1" stroke="none" stroke-width="1" fill="none" fill-rule="evenodd">
        <g id="logo" transform="translate(0.000000, 0.000000)" fill="#C80000" fill-rule="nonzero">
            <path d="M749.438719,146.82912 L753,146.82912 L753,150.387321 L749.438719,150.387321 L749.438719,146.82912 Z M676.852226,146.82912 L680.413507,146.82912 L680.413507,150.387321 L676.852226,150.387321 L676.852226,146.82912 Z M542.574909,141.181544 C541.412708,141.672467 539.692926,142.041633 537.486355,142.347965 C536.194585,142.59539 535.275779,142.776054 534.784985,143.023479 C534.231408,143.270904 533.803396,143.577236 533.560002,144.005324 C533.24982,144.496247 533.128103,144.98717 533.128103,145.478093 C533.128103,146.338197 533.434358,147.013695 534.050796,147.563541 C534.663307,148.117298 535.582074,148.360795 536.811022,148.360795 C537.977149,148.360795 539.017633,148.117298 539.999221,147.563541 C540.921914,147.072618 541.59332,146.338197 542.084115,145.415259 C542.394296,144.739745 542.574909,143.698992 542.574909,142.347965 L542.574909,141.181544 Z M396.687326,137.870753 C394.971509,138.911506 393.864278,139.834444 393.251767,140.690622 C392.639256,141.55071 392.391911,142.410815 392.391911,143.20807 C392.391911,144.248822 392.760973,145.293502 393.620844,146.397104 C394.417894,147.504618 395.584021,148.054463 397.119225,148.054463 C398.037991,148.054463 399.01958,147.810966 400.001168,147.194359 C400.982756,146.644529 401.779806,145.906181 402.392317,144.924336 L396.687326,137.870753 Z M734.773868,134.186869 C733.364268,134.186869 732.198141,134.799548 731.279335,135.907062 C730.356721,137.069571 729.928709,138.852599 729.928709,141.244379 C729.928709,143.577236 730.419503,145.356352 731.401091,146.522772 C732.38268,147.689209 733.548807,148.239039 734.895546,148.239039 C736.246251,148.239039 737.349517,147.689209 738.331105,146.581695 C739.312693,145.478093 739.803487,143.820733 739.803487,141.487876 C739.803487,139.033262 739.312693,137.19524 738.331105,135.965969 C737.349517,134.799548 736.124494,134.186869 734.773868,134.186869 Z M577.672581,134.186869 C576.074555,134.186869 574.786711,134.799548 573.805123,135.965969 C572.764639,137.132405 572.273845,138.911506 572.273845,141.244379 C572.273845,143.577236 572.764639,145.356352 573.805123,146.522772 C574.786711,147.685282 576.074555,148.239039 577.672581,148.239039 C579.203859,148.239039 580.491702,147.685282 581.536073,146.522772 C582.517662,145.356352 583.071317,143.577236 583.071317,141.122622 C583.071317,138.911506 582.517662,137.19524 581.536073,135.965969 C580.491702,134.799548 579.203859,134.186869 577.672581,134.186869 Z M486.471247,134.186869 C484.877147,134.186869 483.589303,134.799548 482.607715,135.965969 C481.563305,137.132405 481.072511,138.911506 481.072511,141.244379 C481.072511,143.577236 481.563305,145.356352 482.607715,146.522772 C483.589303,147.685282 484.877147,148.239039 486.471247,148.239039 C488.006451,148.239039 489.294295,147.685282 490.338705,146.522772 C491.320293,145.356352 491.869982,143.577236 491.869982,141.122622 C491.869982,138.911506 491.320293,137.19524 490.338705,135.965969 C489.294295,134.799548 488.006451,134.186869 486.471247,134.186869 Z M310.240801,134.186869 C308.64671,134.186869 307.358854,134.799548 306.377266,135.965969 C305.33286,137.132405 304.842066,138.911506 304.842066,141.244379 C304.842066,143.577236 305.33286,145.356352 306.377266,146.522772 C307.358854,147.685282 308.64671,148.239039 310.240801,148.239039 C311.776002,148.239039 313.063857,147.685282 314.108263,146.522772 C315.089852,145.356352 315.639537,143.577236 315.639537,141.122622 C315.639537,138.911506 315.089852,137.19524 314.108263,135.965969 C313.063857,134.799548 311.776002,134.186869 310.240801,134.186869 Z M289.933714,134.186869 C288.520227,134.186869 287.358003,134.799548 286.376414,135.965969 C285.394826,137.19524 284.904032,138.852599 284.904032,141.059788 C284.904032,143.266977 285.210299,144.865429 285.822806,145.847275 C286.804395,147.441784 288.09225,148.239039 289.74916,148.239039 C291.099829,148.239039 292.324867,147.689209 293.306455,146.459938 C294.288044,145.293502 294.778838,143.514402 294.778838,141.181544 C294.778838,138.852599 294.288044,137.069571 293.369273,135.907062 C292.387685,134.799548 291.284356,134.186869 289.933714,134.186869 Z M268.762794,134.186869 C267.168702,134.186869 265.880878,134.799548 264.899289,135.965969 C263.854852,137.132405 263.364058,138.911506 263.364058,141.244379 C263.364058,143.577236 263.854852,145.356352 264.899289,146.522772 C265.880878,147.685282 267.168702,148.239039 268.762794,148.239039 C270.298025,148.239039 271.585849,147.685282 272.630255,146.522772 C273.611844,145.356352 274.161529,143.577236 274.161529,141.122622 C274.161529,138.911506 273.611844,137.19524 272.630255,135.965969 C271.585849,134.799548 270.298025,134.186869 268.762794,134.186869 Z M645.072361,132.038587 L648.386164,132.038587 L652.312518,143.023479 C652.681634,144.252749 653.109607,145.478093 653.478723,146.703436 C653.722118,145.784425 654.154017,144.618004 654.644811,143.270904 L658.692842,132.038587 L661.881119,132.038587 L654.951106,150.387321 L652.065236,150.387321 L645.072361,132.038587 Z M561.967168,132.038587 L565.096471,132.038587 L565.096471,150.387321 L561.967168,150.387321 L561.967168,132.038587 Z M447.87912,132.038587 L450.945602,132.038587 L450.945602,142.226224 C450.945602,143.883583 451.008424,144.98717 451.192962,145.478093 C451.314679,146.338197 451.742652,146.950861 452.359089,147.441784 C452.9716,147.932707 453.76865,148.117298 454.750238,148.117298 C455.669005,148.117298 456.528876,147.932707 457.388748,147.441784 C458.185797,146.950861 458.739413,146.338197 459.104564,145.478093 C459.41082,144.680838 459.595358,143.451567 459.595358,141.857042 L459.595358,132.038587 L462.724662,132.038587 L462.724662,150.387321 L459.964435,150.387321 L459.964435,147.685282 C458.492053,149.774657 456.591698,150.815409 454.137727,150.815409 C453.030496,150.815409 452.048907,150.571911 451.130141,150.20273 C450.148552,149.774657 449.473219,149.220884 448.982425,148.60822 C448.491631,147.995541 448.185376,147.257193 448.063659,146.338197 C447.941942,145.72159 447.87912,144.739745 447.87912,143.392661 L447.87912,132.038587 Z M333.928483,132.038587 L337.057802,132.038587 L337.057802,150.387321 L333.928483,150.387321 L333.928483,132.038587 Z M599.636562,131.669421 C600.739906,131.669421 601.721495,131.916846 602.644188,132.286012 C603.562915,132.651266 604.238326,133.205023 604.729121,133.817703 C605.157054,134.430366 605.467197,135.231549 605.710709,136.087726 C605.832387,136.704317 605.895208,137.686162 605.895208,139.096097 L605.895208,150.387321 L602.765944,150.387321 L602.765944,139.217853 C602.765944,137.99251 602.644188,137.010664 602.396828,136.397985 C602.153394,135.781394 601.721495,135.290471 601.108944,134.921289 C600.496473,134.556051 599.758318,134.308626 598.961268,134.308626 C597.61449,134.308626 596.507298,134.740626 595.525709,135.596803 C594.544121,136.456892 594.116148,138.051417 594.116148,140.384274 L594.116148,150.387321 L590.986884,150.387321 L590.986884,132.038587 L593.809893,132.038587 L593.809893,134.677792 C595.097737,132.7141 597.060913,131.669421 599.636562,131.669421 Z M577.672581,131.669421 C580.185447,131.669421 582.274267,132.52951 583.868366,134.124035 C585.462426,135.781394 586.259515,138.051417 586.259515,140.938047 C586.259515,143.329811 585.890438,145.171761 585.15621,146.522772 C584.418056,147.869872 583.436467,148.977386 582.089728,149.711807 C580.739063,150.450155 579.26668,150.815409 577.672581,150.815409 C575.092967,150.815409 573.008073,150.018154 571.413974,148.360795 C569.819874,146.703436 569.08172,144.311656 569.08172,141.244379 C569.08172,137.866826 570.004413,135.353305 571.904768,133.695946 C573.498867,132.344934 575.403149,131.669421 577.672581,131.669421 Z M538.58966,131.669421 C540.18372,131.669421 541.412708,131.854012 542.394296,132.223178 C543.375885,132.592359 544.047291,133.083282 544.538085,133.633112 C545.02888,134.186869 545.339061,134.862382 545.519674,135.722471 C545.645317,136.272317 545.704212,137.19524 545.704212,138.54234 L545.704212,142.717147 C545.704212,145.599849 545.767073,147.441784 545.888751,148.180132 C546.010468,148.977386 546.257867,149.711807 546.685801,150.387321 L543.43478,150.387321 C543.065703,149.774657 542.885091,148.977386 542.822308,148.117298 C541.656103,149.099143 540.552837,149.833564 539.508427,150.20273 C538.405161,150.571911 537.301816,150.815409 536.072868,150.815409 C534.050796,150.815409 532.515631,150.324486 531.412286,149.342641 C530.305055,148.360795 529.814261,147.135452 529.814261,145.540927 C529.814261,144.680838 529.998799,143.820733 530.430698,143.086313 C530.795849,142.347965 531.349425,141.794208 532.024837,141.307213 C532.637309,140.875197 533.375463,140.506031 534.231408,140.262533 C534.847845,140.140776 535.766573,140.015108 536.995561,139.830517 C539.508427,139.587019 541.349926,139.217853 542.574909,138.726931 C542.574909,138.361676 542.574909,138.051417 542.574909,137.92966 C542.574909,136.704317 542.268653,135.781394 541.718964,135.290471 C540.859132,134.556051 539.692926,134.186869 538.157761,134.186869 C536.685379,134.186869 535.582074,134.493201 534.906741,134.984123 C534.172513,135.475046 533.681719,136.397985 533.375463,137.686162 L530.367837,137.316996 C530.615237,136.028819 531.043248,134.984123 531.65572,134.186869 C532.268231,133.389614 533.190924,132.776935 534.415947,132.344934 C535.644895,131.916846 536.995561,131.669421 538.58966,131.669421 Z M508.132938,131.669421 C509.479677,131.669421 510.586908,131.975753 511.442853,132.52951 C512.302725,133.083282 512.915236,133.880537 513.284313,134.862382 C514.756696,132.776935 516.598195,131.669421 518.930409,131.669421 C520.767943,131.669421 522.18143,132.223178 523.163018,133.205023 C524.144606,134.186869 524.635401,135.722471 524.635401,137.807919 L524.635401,150.387321 L521.506136,150.387321 L521.506136,138.848672 C521.506136,137.623328 521.38438,136.704317 521.199841,136.15056 C521.015342,135.659637 520.646226,135.231549 520.155431,134.862382 C519.601855,134.493201 518.989305,134.308626 518.255076,134.308626 C516.967233,134.308626 515.922783,134.740626 515.062951,135.596803 C514.203119,136.456892 513.775107,137.866826 513.775107,139.708776 L513.775107,150.387321 L510.645804,150.387321 L510.645804,138.483433 C510.645804,137.132405 510.40237,136.087726 509.911576,135.353305 C509.420782,134.677792 508.560871,134.308626 507.457605,134.308626 C506.534912,134.308626 505.737862,134.556051 505.003634,135.046973 C504.26548,135.537896 503.71579,136.213394 503.405648,137.069571 C503.040457,137.92966 502.914853,139.217853 502.914853,140.875197 L502.914853,150.387321 L499.789437,150.387321 L499.789437,132.038587 L502.549663,132.038587 L502.549663,134.614957 C503.099353,133.75878 503.837546,133.020432 504.819135,132.466675 C505.800723,131.975753 506.903989,131.669421 508.132938,131.669421 Z M486.471247,131.669421 C488.988039,131.669421 491.072933,132.52951 492.667032,134.124035 C494.265058,135.781394 495.062108,138.051417 495.062108,140.938047 C495.062108,143.329811 494.69303,145.171761 493.954876,146.522772 C493.220648,147.869872 492.23906,148.977386 490.888394,149.711807 C489.537728,150.450155 488.065346,150.815409 486.471247,150.815409 C483.895559,150.815409 481.810665,150.018154 480.212639,148.360795 C478.61854,146.703436 477.884312,144.311656 477.884312,141.244379 C477.884312,137.866826 478.803079,135.353305 480.703434,133.695946 C482.301459,132.344934 484.201814,131.669421 486.471247,131.669421 Z M366.870615,131.669421 C368.280148,131.669421 369.509112,131.916846 370.61241,132.286012 C371.715707,132.7141 372.516691,133.267857 373.06638,133.939444 C373.557175,134.677792 373.92626,135.596803 374.169678,136.763239 L371.103204,137.19524 C370.981495,136.272317 370.553514,135.537896 369.878193,134.984123 C369.202845,134.493201 368.280148,134.186869 367.117955,134.186869 C365.645573,134.186869 364.663984,134.430366 364.047559,134.921289 C363.435055,135.412212 363.128788,135.965969 363.128788,136.578649 C363.128788,137.010664 363.250497,137.379831 363.497869,137.623328 C363.741291,137.99251 364.110376,138.298842 364.72288,138.483433 C364.970252,138.605174 365.889026,138.911506 367.424223,139.280687 C369.630821,139.893351 371.166022,140.325367 372.025897,140.690622 C372.881854,141.059788 373.619992,141.613545 374.110787,142.347965 C374.601581,143.086313 374.84503,143.94249 374.84503,144.98717 C374.84503,146.090772 374.538763,147.072618 373.92626,147.932707 C373.313753,148.851718 372.39106,149.590066 371.287762,150.080989 C370.184433,150.571911 368.896605,150.815409 367.424223,150.815409 C365.029147,150.815409 363.191602,150.324486 361.962673,149.342641 C360.737631,148.360795 359.936647,146.888027 359.630411,144.924336 L362.700808,144.433413 C362.822521,145.662684 363.313315,146.644529 364.110376,147.257193 C364.907438,147.932707 366.010735,148.239039 367.424223,148.239039 C368.833791,148.239039 369.878193,147.995541 370.61241,147.37895 C371.287762,146.82912 371.656816,146.153606 371.656816,145.356352 C371.656816,144.618004 371.350576,144.068159 370.734119,143.698992 C370.243325,143.451567 369.202845,143.086313 367.545936,142.59539 C365.213674,142.041633 363.619582,141.55071 362.759703,141.122622 C361.899824,140.753456 361.228425,140.140776 360.796526,139.402428 C360.305732,138.668008 360.121205,137.866826 360.121205,136.947815 C360.121205,136.15056 360.305732,135.412212 360.674817,134.677792 C361.043898,134.002278 361.534693,133.389614 362.210014,132.898691 C362.700808,132.592359 363.313315,132.286012 364.17319,132.038587 C365.029147,131.795089 365.889026,131.669421 366.870615,131.669421 Z M349.62997,131.669421 C351.593146,131.669421 353.191192,132.223178 354.47902,133.205023 C355.704058,134.186869 356.563937,135.596803 356.932991,137.438737 L353.925408,137.92966 C353.619172,136.704317 353.128378,135.781394 352.39413,135.168714 C351.655996,134.556051 350.737221,134.186869 349.755633,134.186869 C348.157587,134.186869 346.869763,134.799548 345.888175,135.903135 C344.906586,137.010664 344.47861,138.789765 344.47861,141.181544 C344.47861,143.698992 344.906586,145.478093 345.888175,146.581695 C346.810868,147.685282 348.035878,148.239039 349.571078,148.239039 C350.796116,148.239039 351.777705,147.869872 352.637584,147.135452 C353.434614,146.397104 353.925408,145.293502 354.17278,143.698992 L357.239258,144.068159 C356.870173,146.216441 356.010294,147.869872 354.663574,149.036309 C353.250087,150.26558 351.534255,150.815409 349.571078,150.815409 C347.05429,150.815409 345.032218,150.018154 343.559835,148.360795 C342.024639,146.76627 341.286469,144.374506 341.286469,141.307213 C341.286469,139.343522 341.596659,137.560494 342.268057,136.087726 C342.884515,134.614957 343.866103,133.511355 345.212822,132.776935 C346.563496,132.038587 348.035878,131.669421 349.62997,131.669421 Z M310.240801,131.669421 C312.75759,131.669421 314.842476,132.52951 316.440525,134.124035 C318.034617,135.781394 318.831678,138.051417 318.831678,140.938047 C318.831678,143.329811 318.462593,145.171761 317.728349,146.522772 C316.990211,147.869872 316.008622,148.977386 314.657949,149.711807 C313.311202,150.450155 311.838819,150.815409 310.240801,150.815409 C307.665122,150.815409 305.580236,150.018154 303.986113,148.360795 C302.388095,146.703436 301.653883,144.311656 301.653883,141.244379 C301.653883,137.866826 302.572622,135.353305 304.476907,133.695946 C306.07103,132.344934 307.971357,131.669421 310.240801,131.669421 Z M268.762794,131.669421 C271.279613,131.669421 273.364499,132.52951 274.962517,134.124035 C276.556609,135.781394 277.35367,138.051417 277.35367,140.938047 C277.35367,143.329811 276.984585,145.171761 276.250373,146.522772 C275.512203,147.869872 274.530614,148.977386 273.179941,149.711807 C271.833225,150.450155 270.360843,150.815409 268.762794,150.815409 C266.187114,150.815409 264.102228,150.018154 262.508136,148.360795 C260.910087,146.703436 260.175875,144.311656 260.175875,141.244379 C260.175875,137.866826 261.094645,135.353305 262.99893,133.695946 C264.593022,132.344934 266.493381,131.669421 268.762794,131.669421 Z M625.837157,128.04837 L625.837157,137.132405 L632.40198,137.132405 C634.486913,137.132405 636.022156,136.763239 636.940884,135.907062 C637.863577,135.10588 638.354371,134.002278 638.354371,132.52951 C638.354371,131.48483 638.048115,130.565818 637.557321,129.831398 C637.003745,129.09305 636.265551,128.539293 635.409606,128.295795 C634.855951,128.174054 633.81158,128.04837 632.280302,128.04837 L625.837157,128.04837 Z M238.215785,127.867707 L238.215785,136.272317 L245.393158,136.272317 C246.924432,136.272317 248.153381,136.15056 249.013256,135.781394 C249.869197,135.475046 250.485639,134.984123 250.976433,134.249703 C251.404397,133.574205 251.647847,132.835857 251.647847,131.97968 C251.647847,130.813244 251.157037,129.831398 250.3011,129.030216 C249.441221,128.295795 248.031668,127.867707 246.190204,127.867707 L238.215785,127.867707 Z M432.142296,127.742038 C431.773219,129.399398 431.34132,130.997834 430.728809,132.592359 L427.968582,140.015108 L436.559444,140.015108 L433.920934,132.961526 C433.061063,130.872166 432.507447,129.09305 432.142296,127.742038 Z M398.344247,127.192209 C397.484376,127.192209 396.809043,127.498541 396.259353,128.04837 C395.705737,128.602127 395.462304,129.277641 395.462304,130.015989 C395.462304,130.381243 395.521199,130.813244 395.705737,131.241332 C395.890276,131.669421 396.196532,132.101437 396.628431,132.592359 L398.037991,134.186869 C399.388657,133.448521 400.244602,132.776935 400.613679,132.160343 C400.982756,131.547664 401.22619,130.872166 401.22619,130.137746 C401.22619,129.277641 400.919935,128.602127 400.370245,128.04837 C399.816629,127.498541 399.141297,127.192209 398.344247,127.192209 Z M721.153309,125.656606 L721.153309,132.038587 L724.282613,132.038587 L724.282613,134.493201 L721.153309,134.493201 L721.153309,145.171761 C721.153309,146.090772 721.153309,146.644529 721.275026,146.888027 C721.400669,147.135452 721.581321,147.37895 721.828642,147.504618 C722.072115,147.689209 722.382258,147.748116 722.873052,147.748116 C723.238203,147.748116 723.670102,147.748116 724.282613,147.626375 L724.710585,150.324486 C723.791819,150.509077 722.994808,150.634746 722.382258,150.634746 C721.216131,150.634746 720.356259,150.450155 719.743748,150.080989 C719.12735,149.711807 718.636556,149.283734 718.393083,148.671054 C718.145762,148.117298 718.024006,146.888027 718.024006,145.050004 L718.024006,134.493201 L715.754573,134.493201 L715.754573,132.038587 L718.024006,132.038587 L718.024006,127.498541 L721.153309,125.656606 Z M669.305814,125.656606 L669.305814,132.038587 L672.435078,132.038587 L672.435078,134.493201 L669.305814,134.493201 L669.305814,145.171761 C669.305814,146.090772 669.305814,146.644529 669.427531,146.888027 C669.553174,147.135452 669.733826,147.37895 669.981107,147.504618 C670.22462,147.689209 670.534763,147.748116 671.025557,147.748116 C671.390708,147.748116 671.822606,147.748116 672.435078,147.626375 L672.86309,150.324486 C671.944284,150.509077 671.147313,150.634746 670.534763,150.634746 C669.368636,150.634746 668.508725,150.450155 667.896253,150.080989 C667.279855,149.711807 666.789061,149.283734 666.545548,148.671054 C666.298267,148.117298 666.17651,146.888027 666.17651,145.050004 L666.17651,134.493201 L663.907078,134.493201 L663.907078,132.038587 L666.17651,132.038587 L666.17651,127.498541 L669.305814,125.656606 Z M555.280588,125.656606 L555.280588,132.038587 L558.405965,132.038587 L558.405965,134.493201 L555.280588,134.493201 L555.280588,145.171761 C555.280588,146.090772 555.280588,146.644529 555.402305,146.888027 C555.523983,147.135452 555.708561,147.37895 555.951994,147.504618 C556.199355,147.689209 556.505571,147.748116 556.996365,147.748116 C557.365482,147.748116 557.793454,147.748116 558.405965,147.626375 L558.837864,150.324486 C557.915171,150.509077 557.118121,150.634746 556.505571,150.634746 C555.339483,150.634746 554.479612,150.450155 553.867101,150.080989 C553.25459,149.711807 552.763796,149.283734 552.516435,148.671054 C552.273001,148.117298 552.151284,146.888027 552.151284,145.050004 L552.151284,134.493201 L549.881852,134.493201 L549.881852,132.038587 L552.151284,132.038587 L552.151284,127.498541 L555.280588,125.656606 Z M472.359933,125.656606 L472.359933,132.038587 L475.489236,132.038587 L475.489236,134.493201 L472.359933,134.493201 L472.359933,145.171761 C472.359933,146.090772 472.359933,146.644529 472.48165,146.888027 C472.607293,147.135452 472.787905,147.37895 473.035266,147.504618 C473.278699,147.689209 473.588881,147.748116 474.079676,147.748116 C474.444826,147.748116 474.876725,147.748116 475.489236,147.626375 L475.917209,150.324486 C474.998442,150.509077 474.201393,150.634746 473.588881,150.634746 C472.422754,150.634746 471.562883,150.450155 470.950372,150.080989 C470.333935,149.711807 469.84314,149.283734 469.599706,148.671054 C469.352346,148.117298 469.230629,146.888027 469.230629,145.050004 L469.230629,134.493201 L466.961197,134.493201 L466.961197,132.038587 L469.230629,132.038587 L469.230629,127.498541 L472.359933,125.656606 Z M327.237997,125.656606 L327.237997,132.038587 L330.367288,132.038587 L330.367288,134.493201 L327.237997,134.493201 L327.237997,145.171761 C327.237997,146.090772 327.237997,146.644529 327.363628,146.888027 C327.485341,147.135452 327.669896,147.37895 327.913318,147.504618 C328.16069,147.689209 328.46693,147.748116 328.957724,147.748116 C329.326805,147.748116 329.754785,147.748116 330.367288,147.626375 L330.799187,150.324486 C329.876494,150.509077 329.079464,150.634746 328.46693,150.634746 C327.300814,150.634746 326.440935,150.450155 325.828432,150.080989 C325.215925,149.711807 324.725131,149.283734 324.477758,148.671054 C324.234336,148.117298 324.108673,146.888027 324.108673,145.050004 L324.108673,134.493201 L321.839261,134.493201 L321.839261,132.038587 L324.108673,132.038587 L324.108673,127.498541 L327.237997,125.656606 Z M739.497232,125.102842 L742.626575,125.102842 L742.626575,150.387321 L739.744592,150.387321 L739.744592,148.054463 C738.515643,149.896398 736.799827,150.815409 734.58929,150.815409 C733.116908,150.815409 731.829103,150.387321 730.604042,149.590066 C729.375132,148.792811 728.393544,147.689209 727.718172,146.212513 C727.042839,144.802579 726.736584,143.145236 726.736584,141.244379 C726.736584,139.402428 727.042839,137.745085 727.659277,136.272317 C728.271788,134.799548 729.131659,133.633112 730.356721,132.835857 C731.58563,132.101437 732.932369,131.669421 734.467573,131.669421 C735.570878,131.669421 736.552467,131.916846 737.412338,132.344934 C738.27221,132.835857 738.947542,133.448521 739.497232,134.186869 L739.497232,125.102842 Z M696.978752,125.102842 L700.35145,125.102842 L700.35145,147.37895 L712.805921,147.37895 L712.805921,150.387321 L696.978752,150.387321 L696.978752,125.102842 Z M622.464419,125.102842 L632.032942,125.102842 C633.689863,125.102842 634.977707,125.22851 635.9004,125.350251 C637.125422,125.593756 638.107011,125.962938 638.966921,126.516695 C639.826753,127.129359 640.502086,127.926629 640.99288,128.971309 C641.483675,130.015989 641.78993,131.178498 641.78993,132.407769 C641.78993,134.614957 641.051776,136.394058 639.70111,137.870753 C638.354371,139.339594 635.9004,140.077942 632.339198,140.077942 L625.837157,140.077942 L625.837157,150.387321 L622.464419,150.387321 L622.464419,125.102842 Z M561.967168,125.102842 L565.096471,125.102842 L565.096471,128.664977 L561.967168,128.664977 L561.967168,125.102842 Z M430.422553,125.102842 L433.979829,125.102842 L444.349328,150.387321 L440.544692,150.387321 L437.599927,142.717147 L426.986994,142.717147 L424.226768,150.387321 L420.669492,150.387321 L430.422553,125.102842 Z M333.928483,125.102842 L337.057802,125.102842 L337.057802,128.664977 L333.928483,128.664977 L333.928483,125.102842 Z M282.081007,125.102842 L285.147485,125.102842 L285.147485,134.124035 C286.435337,132.52951 288.09225,131.669421 290.177136,131.669421 C291.284356,131.669421 292.387685,131.916846 293.369273,132.344934 C294.350861,132.835857 295.210709,133.448521 295.882139,134.249703 C296.498565,135.10588 297.048254,136.087726 297.417339,137.254162 C297.786421,138.420583 297.970947,139.649854 297.970947,140.938047 C297.970947,144.127081 297.173886,146.522772 295.63869,148.239039 C294.044594,149.959232 292.203131,150.815409 290.055427,150.815409 C287.848797,150.815409 286.191888,149.959232 284.962955,148.117298 L284.962955,150.387321 L282.081007,150.387321 L282.081007,125.102842 Z M234.839121,125.102842 L246.068491,125.102842 C248.275106,125.102842 249.994844,125.350259 251.219871,125.778347 C252.385986,126.26927 253.304756,127.066525 254.042922,128.174054 C254.718247,129.340475 255.083406,130.628668 255.083406,131.97968 C255.083406,133.817703 254.470871,135.290471 253.304756,136.519742 C252.138641,137.745085 250.359991,138.54234 247.968838,138.852599 C248.828717,139.339594 249.50405,139.77161 249.994844,140.140776 C250.976433,141.059788 251.895192,142.16339 252.755071,143.514402 L257.172218,150.387321 L252.939598,150.387321 L249.562946,145.108927 C248.581357,143.636158 247.784311,142.469722 247.171792,141.672467 C246.559285,140.875197 245.942844,140.32144 245.45205,139.956201 C244.961256,139.649854 244.470461,139.402428 243.979667,139.280687 C243.551691,139.217853 242.939188,139.158931 242.079308,139.158931 L238.215785,139.158931 L238.215785,150.387321 L234.839121,150.387321 L234.839121,125.102842 Z M398.528786,124.674753 C400.244602,124.674753 401.658089,125.22851 402.761394,126.26927 C403.8647,127.31395 404.418315,128.602127 404.418315,130.074896 C404.418315,132.466675 402.824216,134.493201 399.632091,136.213394 L404.170955,141.978799 C404.661749,140.996954 405.093648,139.834444 405.399904,138.483433 L408.588103,139.158931 C408.038413,141.36612 407.300259,143.20807 406.381492,144.618004 C407.484797,146.212513 408.835463,147.504618 410.307845,148.486464 L408.222952,151 C406.935108,150.20273 405.643338,148.977386 404.355494,147.37895 C403.31501,148.545386 402.207779,149.405475 400.982756,149.959232 C399.753808,150.509077 398.465964,150.815409 397.056403,150.815409 C394.480715,150.815409 392.391911,149.959232 390.919529,148.176204 C389.694487,146.76627 389.081983,145.171761 389.081983,143.392661 C389.081983,141.857042 389.572778,140.447124 390.554366,139.217853 C391.535954,137.99251 393.067228,136.826074 395.093226,135.844228 C393.927099,134.556051 393.192871,133.511355 392.823794,132.651266 C392.454725,131.854012 392.270171,131.056741 392.270171,130.322321 C392.270171,128.786718 392.823794,127.435707 394.048816,126.332104 C395.214943,125.22851 396.687326,124.674753 398.528786,124.674753 Z M604.964663,46.515923 C601.038309,46.515923 598.093544,47.4977607 596.256011,49.339703 C594.414591,51.240556 593.491898,54.0643438 593.491898,57.8660498 C593.491898,59.2799074 593.491898,60.5052507 593.617502,61.5499226 C593.739179,62.5906907 593.923796,63.8199613 594.167191,65.1709729 C594.414591,66.5180729 594.783628,67.9319344 595.148779,69.4047028 C595.517857,70.8774711 595.949755,72.2873974 596.436662,73.5166838 C597.665533,77.0748763 598.953416,79.7769153 600.363016,81.6149302 C601.713642,83.5197145 603.248885,84.4387102 604.964663,84.4387102 C606.071894,84.4387102 607.112378,83.9477953 608.215722,82.9659576 C609.260093,81.9841041 610.363398,80.389587 611.47063,78.1195561 C612.08318,76.6467956 612.695652,75.1111852 613.308163,73.453826 C613.924601,71.7964746 614.415395,69.9584597 614.906189,67.9947686 C615.762134,64.248042 616.194033,60.8744246 616.194033,57.8660498 C616.194033,54.0015057 615.27134,51.1188072 613.433807,49.2768767 C611.592386,47.4349226 608.769299,46.515923 604.964663,46.515923 Z M4.84511132,27.9197729 L33.0049262,27.9197729 L33.0049262,104.813977 L4.84511132,104.813977 L4.84511132,27.9197729 Z M397.708178,26.2035057 L469.485842,26.2035057 C480.589569,26.2035057 488.320559,28.4735216 492.737706,32.9546639 C497.092032,37.4947182 499.302569,45.4712315 499.302569,56.8842161 L499.302569,104.813977 L474.637218,104.813977 L474.637218,60.5681006 C474.637218,54.6141774 473.90299,50.9342202 472.552324,49.5831968 C471.201659,48.2321812 468.625971,47.5566715 464.821335,47.5566793 L460.894981,47.5566793 L460.894981,104.813977 L436.170735,104.813977 L436.170735,47.5566793 L422.428498,47.5566793 L422.428498,104.813977 L397.708178,104.813977 L397.708178,26.2035057 Z M539.461311,26.2034943 L553.757163,26.2034943 L559.831192,46.8222589 L545.413662,46.8222589 C544.062997,46.822251 543.081408,47.0657487 542.468897,47.4977686 C541.793564,47.9258454 541.487309,48.6013551 541.487309,49.5203665 C541.487309,50.0112854 541.546165,50.5022082 541.730782,50.993127 C541.85246,51.4840537 542.09982,51.9160658 542.468897,52.2223976 L556.026595,69.7110347 C557.989772,72.2873974 559.52105,75.0483432 560.628281,77.872131 C561.731586,80.6959267 562.285163,83.4568725 562.285163,86.0332352 C562.285163,92.4152314 560.137487,97.1398683 555.904839,100.211089 C551.668343,103.278375 545.044585,104.813977 536.088573,104.813977 L517.375573,104.813977 L511.179788,84.1952282 L530.442516,84.1952282 C531.549709,84.1952203 532.346719,84.0695441 532.837513,83.7632122 C533.328307,83.4568725 533.571781,82.9031077 533.571781,82.046954 C533.571781,81.5560234 533.387281,81.0022586 533.143808,80.448482 C532.837513,79.8986642 532.405693,79.2231584 531.855925,78.3630459 L518.726239,61.2435986 C516.456807,58.3569726 514.799886,55.5371122 513.696541,52.7761664 C512.589309,50.0741235 512.098515,47.3720845 512.098515,44.7368071 C512.098515,41.5438493 512.773927,38.6611507 514.124553,36.143692 C515.475218,33.6890856 517.560112,31.4818956 520.257517,29.5771148 C521.977259,28.4735216 524.246692,27.6134253 527.06974,27.063598 C529.892748,26.5098305 533.999753,26.2034943 539.461311,26.2034943 Z M175.091807,26.2034943 L203.742395,26.2034943 L215.458637,65.4144785 L228.525537,26.2034943 L254.663278,26.2034943 L216.687585,130.954641 L190.243592,130.954641 L202.639097,96.8963706 L175.091807,26.2034943 Z M604.964663,25.3433925 C617.850954,25.3433925 627.176043,27.6762626 632.93993,32.2791656 C638.707743,36.8820462 641.652508,44.304799 641.652508,54.4924285 C641.652508,62.0408572 640.364625,69.4636096 637.910654,76.7057103 C635.456683,84.0106373 631.958341,90.3297914 627.541194,95.6081931 C624.415817,99.2881503 620.976371,102.111938 617.234517,104.075629 C615.27134,104.935726 613.370946,105.61124 611.407769,106.10217 C609.444592,106.593085 607.296916,106.836575 604.964663,106.836575 C600.30412,106.836575 596.130368,105.917571 592.451414,104.075629 C588.70956,102.233687 585.274001,99.4138265 582.207519,95.6081931 C577.849267,90.3926334 574.413708,84.191293 571.838059,76.9531275 C569.262332,69.7738767 568.033383,62.7163669 568.033383,55.7177678 C568.033383,45.0431468 570.856471,37.3101316 576.624244,32.5226495 C582.329236,27.7351729 591.776003,25.3433925 604.964663,25.3433925 Z M735.641553,4.72463965 L735.641553,26.2034943 L748.58674,26.2034943 L748.58674,47.5566793 L735.641553,47.5566793 L735.641553,78.6693857 C735.641553,80.7587609 736.069486,82.168695 736.929397,82.9659576 C737.789268,83.8260464 739.383368,84.191293 741.715621,84.191293 L750.919033,84.191293 L745.088398,104.81005 L736.682036,104.81005 C726.744397,104.81005 719.873279,102.972035 715.946925,99.2292513 C712.020572,95.5453511 710.120256,88.8570231 710.120256,79.2231505 L710.120256,47.5566793 L702.758344,47.5566793 L702.758344,26.2034943 L710.120256,26.2034943 L710.120256,12.2102298 L735.641553,4.72463965 Z M289.686342,4.72462826 L289.686342,26.2035057 L302.631544,26.2035057 L302.631544,47.5566793 L289.686342,47.5566793 L289.686342,78.6693857 C289.686342,80.7587609 290.114318,82.168695 290.974198,82.9659576 C291.834073,83.8260464 293.428168,84.191293 295.760426,84.191293 L304.963779,84.191293 L299.13314,104.81005 L290.726822,104.81005 C280.789229,104.81005 273.918111,102.972035 269.991758,99.2292356 C266.065404,95.5453511 264.165046,88.8570231 264.165046,79.2231505 L264.165046,47.5566793 L256.803133,47.5566793 L256.803133,26.2035057 L264.165046,26.2035057 L264.165046,12.2102412 L289.686342,4.72462826 Z M679.588933,0 L693.087736,0 L699.342456,19.6997489 L688.607767,19.6997489 C685.847501,19.6997489 683.947185,20.1906717 682.839954,21.1096799 C681.736648,22.0915255 681.245854,23.7488804 681.245854,26.2034943 L681.245854,26.9379159 L695.541707,26.9379159 L695.541707,47.5566675 L681.245854,47.5566675 L681.245854,104.813977 L655.724558,104.813977 L655.724558,47.5566675 L650.204144,47.5566675 L650.204144,26.2034943 L655.724558,26.2034943 L655.724558,24.7896343 C655.724558,15.9530262 657.566057,9.63386941 661.245011,5.76931311 C664.927969,1.96369151 671.001999,0 679.588933,0 Z M315.867262,0 L341.019473,0 L341.019473,26.2035057 L352.307739,26.2035057 C363.411478,26.2034943 371.142475,28.4735216 375.559623,32.9546639 C379.913952,37.4947182 382.124474,45.4712315 382.124474,56.8842161 L382.124474,104.813977 L357.031154,104.813977 L357.031154,60.5681006 C357.031154,54.6141774 356.293015,50.9342202 354.88345,49.583185 C353.473885,48.2321812 350.894279,47.5566715 347.21527,47.5566793 L341.019473,47.5566793 L341.019473,104.813977 L315.867262,104.813977 L315.867262,0 Z M102.148011,0 L127.30023,0 L127.30023,26.2034943 L138.588496,26.2034943 C149.692219,26.2034943 157.423217,28.4735216 161.840364,32.9546639 C166.194678,37.4947182 168.405215,45.4712315 168.405215,56.8842161 L168.405215,104.813977 L143.311895,104.813977 L143.311895,60.5681006 C143.311895,54.6141774 142.573741,50.9342202 141.164176,49.583185 C139.754627,48.2321812 137.175005,47.5566715 133.496012,47.5566793 L127.30023,47.5566793 L127.30023,104.813977 L102.148011,104.813977 L102.148011,0 Z M6.31750834,0 L55.3969147,0 C65.825309,0 73.9882014,2.39177629 79.8148901,7.05750313 C85.641618,11.719309 88.586383,18.2269806 88.5863751,26.5726584 C88.586383,33.0764132 86.7488496,39.0892362 83.0659303,44.5522123 C79.3830109,50.0112854 73.8036668,55.1051001 66.2572197,59.8925791 C70.8589018,68.6074403 75.6411922,76.5839536 80.674785,83.8849611 C85.7044357,91.2487949 90.9814624,97.8153819 96.5019073,103.584714 L74.1688098,120.213247 C66.3161032,111.376629 59.079838,101.683857 52.3304485,90.9424552 C45.8283956,80.389587 39.5697885,68.4856914 33.5585377,55.1679304 C42.0237593,49.7049496 48.1567231,44.921398 52.0241693,40.8683277 C55.8877128,36.8192088 57.8508894,33.1981628 57.8508776,30.0680317 C57.8508894,28.1043481 57.1166613,26.5098305 55.703182,25.3434038 C54.2936133,24.2398032 52.3304367,23.6271311 49.7547646,23.6271256 L0,23.6271256 L6.31750834,0 Z" id="Path_11"></path>
        </g>
    </g>
</svg>