<?xml version="1.0" encoding="UTF-8"?>
<svg width="15px" height="18px" viewBox="0 0 15 18" version="1.1" xmlns="http://www.w3.org/2000/svg" xmlns:xlink="http://www.w3.org/1999/xlink">
    <title>Group 3</title>
    <defs>
        <polygon id="path-1" points="0 0 14.8180492 0 14.8180492 4.55302166 0 4.55302166"></polygon>
        <polygon id="path-3" points="0 0 14.8180492 0 14.8180492 4.55302166 0 4.55302166"></polygon>
    </defs>
    <g id="Settings" stroke="none" stroke-width="1" fill="none" fill-rule="evenodd">
        <g id="Group-4" transform="translate(-283.000000, -286.000000)">
            <g id="Group-3" transform="translate(283.000000, 286.000000)">
                <g id="Clipped" transform="translate(0.110022, 0.000000)">
                    <mask id="mask-2" fill="white">
                        <use xlink:href="#path-1"></use>
                    </mask>
                    <g id="Path"></g>
                    <path d="M0.0209509693,3.3549981 C0.908548308,2.29270239 2.00683621,1.45473204 3.2310204,0.882098062 C4.4587472,0.307677689 5.80688494,3.80083619e-05 7.18884896,3.80083619e-05 C8.69469036,3.80083619e-05 10.1561919,0.364234132 11.4601802,1.03413151 C12.7623401,1.70402889 13.9067582,2.68156594 14.7836134,3.90657545 L13.9208906,4.51812999 C13.1449048,3.43280122 12.1297732,2.56662866 10.9748034,1.972748 C9.82147158,1.38065374 8.52647312,1.05891296 7.18888706,1.05891296 C5.95757954,1.05891296 4.76181249,1.33106043 3.67944733,1.83675409 C2.59350145,2.3440897 1.61916709,3.08821741 0.834267598,4.0286203 L0.0209509693,3.35515013 L0.0209509693,3.3549981 Z" id="Path" fill="#FFFFFF" fill-rule="nonzero" mask="url(#mask-2)"></path>
                </g>
                <polygon id="Path" fill="#FFFFFF" fill-rule="nonzero" points="14.9433086 1.5359179 14.9892864 4.20334474 15 4.74066895 11.5594699 4.74066895 11.5594699 3.68194603 13.9228535 3.68194603 13.8856537 1.55184341"></polygon>
                <g id="Clipped" transform="translate(0.071930, 13.446978)">
                    <mask id="mask-4" fill="white">
                        <use xlink:href="#path-3"></use>
                    </mask>
                    <g id="Path"></g>
                    <path d="M14.7951936,1.19802357 C13.9093866,2.26031927 12.8110987,3.09828962 11.5869145,3.6709236 C10.3591877,4.24355758 9.01105,4.55298366 7.62908597,4.55298366 C6.12324457,4.55298366 4.66174304,4.18878753 3.35775471,3.51710376 C2.05559483,2.84720639 0.909424439,1.87145572 0.034321497,0.646446218 L0.897044321,0.0348916762 C1.67303013,1.12022045 2.68816173,1.98460661 3.84313153,2.57848727 C4.99646335,3.17058153 6.29146181,3.4941087 7.62904788,3.4941087 C8.86035539,3.4941087 10.0561224,3.22196123 11.1384876,2.71463322 C12.2244335,2.20729761 13.1987678,1.46495629 13.9836673,0.522767009 L14.7951936,1.19802357 Z" id="Path" fill="#FFFFFF" fill-rule="nonzero" mask="url(#mask-4)"></path>
                </g>
                <polygon id="Path" fill="#FFFFFF" fill-rule="nonzero" points="0.0566925611 16.4640821 0.00892816035 13.7948689 0 13.2573926 3.44037772 13.2573926 3.44037772 14.3162676 1.07535612 14.3162676 1.11434016 16.4480046"></polygon>
                <path d="M8.09491553,3.86501539 C8.28805681,3.86501539 8.42093547,4.02417541 8.44563476,4.21495838 L8.55544831,5.06702984 C8.9043848,5.16071285 9.23574534,5.29864519 9.54227706,5.47531566 L9.54019096,5.47701539 L10.2219505,4.95138731 C10.3743212,4.83469023 10.5815987,4.81524135 10.7180314,4.95138731 L11.3964238,5.62827822 L11.5559368,5.7890726 C11.6923848,5.92521855 11.6746793,6.13203725 11.5559368,6.28405549 L11.0298008,6.96463322 C11.2070194,7.26870011 11.3451053,7.59918282 11.4389923,7.94927784 L12.2929538,8.05706575 C12.4843085,8.08186013 12.643673,8.21622577 12.643673,8.40700874 L12.643673,9.5913493 C12.643673,9.78406309 12.48416,9.91664766 12.2929538,9.94129228 L11.4389923,10.0508628 C11.3451015,10.399027 11.2068632,10.7296541 11.0298008,11.0355074 L11.5559368,11.7160851 C11.6746793,11.8681186 11.6923848,12.0749373 11.5559368,12.211068 L10.7180504,13.0471 C10.5816025,13.1832459 10.374325,13.1655796 10.2219696,13.0471 L9.53988218,12.5203421 C9.23335426,12.6988027 8.90213467,12.8367313 8.55305343,12.9286279 L8.44323988,13.7823337 C8.4183905,13.9732649 8.28551336,14.1322767 8.09252065,14.1322767 L6.90734336,14.1322767 C6.71420209,14.1322767 6.58132342,13.9731167 6.55662413,13.7823337 L6.44681058,12.9286279 C6.09787409,12.8367237 5.76651356,12.6987951 5.45998183,12.5203421 L4.77789446,13.0471 C4.62552377,13.1655796 4.41824631,13.1832459 4.2818136,13.0471 L4.12066255,12.8879399 L3.44392719,12.210916 C3.30747924,12.07477 3.32518472,11.8679513 3.44392719,11.7159331 L3.97006317,11.0353554 C3.79284464,10.7295059 3.6547587,10.3990194 3.5608717,10.0507108 L2.70691019,9.94114025 C2.51555546,9.91634588 2.35619096,9.78376283 2.35619096,9.59119726 L2.35619096,8.40685671 C2.35619096,8.2159255 2.51570402,8.08155834 2.70691019,8.05869251 L3.5608717,7.94912201 C3.65476251,7.59917902 3.79300082,7.26854428 3.97006317,6.96447739 L3.44392719,6.28389966 C3.32518472,6.13186621 3.30747924,5.92504751 3.44392719,5.78891676 L3.60344026,5.62812239 L4.28183264,4.95123147 C4.41828059,4.81508552 4.62555805,4.8345344 4.7779135,4.95123147 L5.46000088,5.47798936 C5.7665288,5.30116306 6.09774839,5.16338274 6.44682963,5.06970353 L6.55664318,4.21763208 L6.55664318,4.20872368 L6.55842877,4.19818244 L6.56021437,4.19105587 L6.56735674,4.15542303 L6.57092793,4.14651463 L6.57271353,4.13760623 L6.57628471,4.13047967 L6.57807031,4.12157127 L6.5816415,4.11266287 L6.58342709,4.1055363 L6.58699828,4.0966279 L6.59056947,4.08950133 L6.59414065,4.08059293 L6.59771184,4.07346636 L6.60128303,4.06455796 L6.60663962,4.05743139 L6.613782,4.04317826 L6.61913859,4.03605169 L6.62270978,4.02714329 L6.62806637,4.02179856 L6.63163756,4.01467199 L6.64770809,3.99329228 L6.65306468,3.98794755 L6.65842128,3.98082098 L6.66377787,3.97547624 L6.66913446,3.96834968 L6.67449105,3.96300494 L6.68163343,3.95766021 L6.68699002,3.95053364 L6.69234661,3.9451889 L6.69948898,3.93984417 L6.70484558,3.93449943 L6.71198795,3.93093615 L6.7262727,3.92024629 C6.72984389,3.91668301 6.73520086,3.91490156 6.73862311,3.91133789 L6.75290786,3.90421133 L6.76005024,3.89886659 L6.76719261,3.89530331 L6.76897821,3.89530331 L6.77612058,3.89174002 L6.78326296,3.88995838 L6.79040533,3.8863951 L6.7993335,3.88283181 L6.80647587,3.88105017 L6.81540403,3.87748689 L6.82254641,3.87570525 L6.83147457,3.8739236 L6.83861694,3.87214196 L6.8475451,3.87036032 C6.8529017,3.86857868 6.85810973,3.86857868 6.8652521,3.86679704 L6.87343593,3.86590621 L8.09491553,3.86501539 Z M7.49908635,5.98722919 C5.83207486,5.98722919 4.4803945,7.3359179 4.4803945,8.99923983 C4.4803945,10.6625618 5.83207486,12.0112505 7.49908635,12.0112505 C9.16788819,12.0112505 10.5195685,10.6625618 10.5195685,8.99923983 C10.5195685,7.3359179 9.16788819,5.98722919 7.49908635,5.98722919 Z M7.49908635,7.45621437 C7.92778127,7.45621437 8.31407905,7.62947929 8.59394591,7.90874192 C8.87381277,8.18800456 9.04747726,8.57343216 9.04747726,8.99939187 C9.04747726,9.42535158 8.87382801,9.81258077 8.59394591,10.0918282 C8.31406382,10.3710756 7.92778127,10.5443558 7.49908635,10.5443558 C7.07218178,10.5443558 6.685884,10.3710908 6.40601714,10.0918282 C6.12615028,9.81256556 5.95248579,9.42550361 5.95248579,8.99939187 C5.95248579,8.57343216 6.12613504,8.18798936 6.40601714,7.90874192 C6.68589923,7.62949449 7.07218178,7.45621437 7.49908635,7.45621437 Z M7.49908635,8.18622957 C7.27410722,8.18622957 7.07218178,8.27813379 6.9233918,8.42481946 C6.77637695,8.57150893 6.68605541,8.77476245 6.68605541,8.99923983 C6.68605541,9.22371722 6.77637695,9.42698594 6.9233918,9.57366021 C7.0721894,9.72212847 7.27411103,9.8122501 7.49908635,9.8122501 C7.72406167,9.8122501 7.92778127,9.72212847 8.07657125,9.57366021 C8.2235861,9.42697073 8.31390764,9.22371722 8.31390764,8.99923983 C8.31390764,8.77476245 8.2235861,8.57149373 8.07657125,8.42481946 C7.92777365,8.27812999 7.72406547,8.18622957 7.49908635,8.18622957 Z" id="Combined-Shape" fill="#FFFFFF" fill-rule="nonzero"></path>
            </g>
        </g>
    </g>
</svg>