<?xml version="1.0" encoding="UTF-8"?>
<svg width="10px" height="16px" viewBox="0 0 10 16" version="1.1" xmlns="http://www.w3.org/2000/svg" xmlns:xlink="http://www.w3.org/1999/xlink">
    <title>leftarrow copy</title>
    <g id="Settings" stroke="none" stroke-width="1" fill="none" fill-rule="evenodd">
        <g id="Group-4" transform="translate(-619.000000, -223.000000)" fill="#FFFFFF" fill-rule="nonzero">
            <g id="Group-2" transform="translate(267.000000, 210.000000)">
                <g id="leftarrow-copy" transform="translate(356.727273, 21.000000) scale(-1, 1) translate(-356.727273, -21.000000) translate(352.000000, 13.000000)">
                    <path d="M7.83415303,0.0363636364 C8.06446748,0.0363636364 8.31123297,0.118618799 8.49219433,0.299580156 C8.85411704,0.66150287 8.85411704,1.23728901 8.49219433,1.59921172 L2.25725302,7.85060406 L8.49219433,14.0855454 C8.85411704,14.4474681 8.85411704,15.0232542 8.49219433,15.3851769 C8.13027161,15.7470996 7.55448548,15.7470996 7.19256276,15.3851769 L0.299580156,8.50864536 C0.118618799,8.327684 0.0363636364,8.09736955 0.0363636364,7.85060406 C0.0363636364,7.60383857 0.135069831,7.37352412 0.299580156,7.19256276 L7.19256276,0.299580156 C7.37352412,0.118618799 7.60383857,0.0363636364 7.83415303,0.0363636364 Z" id="Path"></path>
                </g>
            </g>
        </g>
    </g>
</svg>