<?xml version="1.0" encoding="UTF-8"?>
<svg width="24px" height="21px" viewBox="0 0 24 21" version="1.1" xmlns="http://www.w3.org/2000/svg" xmlns:xlink="http://www.w3.org/1999/xlink">
    <title>vacuum_cup</title>
    <g id="Navigation-Pane" stroke="none" stroke-width="1" fill="none" fill-rule="evenodd">
        <g id="Group-29" transform="translate(-17.000000, -456.000000)" fill="#C5C6C6" fill-rule="nonzero">
            <g id="vacuum_cup" transform="translate(17.000000, 456.000000)">
                <polygon id="Path" points="0 17.7847517 24 17.7847517 24 20.0930233 0 20.0930233"></polygon>
                <path d="M19.9953076,12.9385857 L13.8199052,9.19035376 L13.8199052,7.73398369 C15.1346065,7.04746683 16.034874,5.6781855 16.034874,4.10173939 C16.034874,1.83984053 14.1848435,0 11.910694,0 C9.63676974,0 7.78696448,1.83989653 7.78696448,4.10173939 C7.78696448,5.74819252 8.76972456,7.16759888 10.18032,7.8197843 L10.18032,9.19063379 L4.00435456,12.9388657 C3.45600113,13.4844836 3.45600113,14.3685211 4.00435456,14.9130637 L19.9955328,14.9139388 C20.5436667,14.3683209 20.5436667,13.4842834 19.9953129,12.9386207 L19.9953076,12.9385857 Z M8.37145136,4.10145936 C8.37145136,2.16052869 9.95885693,0.581618334 11.9103562,0.581618334 C13.8618554,0.581618334 15.4496551,2.16069671 15.4496551,4.10145936 C15.4496551,5.34954454 14.7908967,6.44495841 13.8035193,7.07042914 C13.7234536,6.37450334 13.1365961,5.83197693 12.4157853,5.83197693 L11.5837079,5.83197693 C10.827704,5.83197693 10.2160199,6.42748465 10.1852189,7.17196732 C9.10459387,6.56923487 8.37145136,5.41983159 8.37145136,4.10151537 L8.37145136,4.10145936 Z" id="Shape"></path>
                <path d="M19.4614988,15.5602086 L4.53850124,15.5602086 C4.38782976,15.5602086 4.26575196,15.6814104 4.26575196,15.8312646 C4.26575196,15.9811244 4.38782976,16.1023206 4.53850124,16.1023206 L19.4614988,16.1023206 C19.6121702,16.1023206 19.7349069,15.9811188 19.7349069,15.8312646 C19.7349069,15.6814048 19.6126095,15.5602086 19.4614988,15.5602086 Z" id="Path"></path>
                <path d="M19.4614988,16.5940723 L4.53850124,16.5940723 C4.38782976,16.5940723 4.26575196,16.7161478 4.26575196,16.8660076 C4.26575196,17.0149937 4.38782976,17.1370636 4.53850124,17.1370636 L19.4614988,17.1370636 C19.6121702,17.1370636 19.7349072,17.0149881 19.7349072,16.8660076 C19.7351269,16.7161478 19.6126095,16.5940723 19.4614988,16.5940723 Z" id="Path"></path>
            </g>
        </g>
    </g>
</svg>