<?xml version="1.0" encoding="UTF-8"?>
<svg width="24px" height="24px" viewBox="0 0 24 24" version="1.1" xmlns="http://www.w3.org/2000/svg" xmlns:xlink="http://www.w3.org/1999/xlink">
    <title>robot_light</title>
    <g id="Navigation-Pane" stroke="none" stroke-width="1" fill="none" fill-rule="evenodd">
        <g id="Group-29" transform="translate(-17.000000, -575.000000)" fill="#C5C6C6" fill-rule="nonzero">
            <g id="robot_light" transform="translate(17.000000, 575.000000)">
                <path d="M12.00016,4.73274299 C7.99212259,4.73274299 4.73124781,7.99301184 4.73124781,12.0009602 C4.73124781,16.0086952 7.99222928,19.2691774 12.00016,19.2691774 C16.0071306,19.2691774 19.2674719,16.0084818 19.2674719,12.0009602 C19.2672635,7.99322522 16.0071306,4.73274299 12.00016,4.73274299 Z M12.00016,18.026779 C8.67708394,18.026779 5.97314034,15.3228422 5.97314034,12.0004268 C5.97314034,8.67801131 8.67713728,5.97407447 12.00016,5.97407447 C15.3223826,5.97407447 18.0261128,8.67801131 18.0261128,12.0004268 C18.0259044,15.3227889 15.3225426,18.026779 12.00016,18.026779 Z" id="Shape"></path>
                <polygon id="Path" points="20.7200807 11.0551584 24 11.0551584 24 12.9455884 20.7200807 12.9455884"></polygon>
                <polygon id="Path" points="19.8174681 2.84700736 21.154263 4.18377254 18.8349433 6.50304065 17.4981485 5.16627547"></polygon>
                <polygon id="Path" points="11.0554042 0 12.9454494 0 12.9454494 3.28005975 11.0554042 3.28005975"></polygon>
                <polygon id="Path" points="4.18338542 2.84647391 6.50270508 5.16590206 5.16591019 6.50245386 2.84659053 4.18302571"></polygon>
                <polygon id="Path" points="0 11.0551584 3.27991927 11.0551584 3.27991927 12.9451616 0 12.9451616"></polygon>
                <polygon id="Path" points="4.18285196 21.1538462 2.84605707 19.817081 5.16553677 17.4976528 6.50233166 18.834418"></polygon>
                <polygon id="Path" points="11.0548707 20.7201536 12.9451293 20.7201536 12.9451293 24 11.0548707 24"></polygon>
                <polygon id="Path" points="19.8158677 21.1543796 17.496388 18.8349515 18.8331829 17.4981863 21.1526626 19.8176144"></polygon>
            </g>
        </g>
    </g>
</svg>