<?xml version="1.0" encoding="UTF-8"?>
<svg width="24px" height="18px" viewBox="0 0 24 18" version="1.1" xmlns="http://www.w3.org/2000/svg" xmlns:xlink="http://www.w3.org/1999/xlink">
    <title>mastering_icon</title>
    <g id="Navigation-Pane" stroke="none" stroke-width="1" fill="none" fill-rule="evenodd">
        <g id="Group-29" transform="translate(-17.000000, -372.000000)" fill="#C5C6C6" fill-rule="nonzero">
            <g id="mastering_icon" transform="translate(17.000000, 372.000000)">
                <path d="M6.48005741,0.000674235881 C6.38377729,0.0129051138 6.29244966,0.050253043 6.21574344,0.108132632 L0.215727607,4.60976665 C0.079856243,4.70979986 0,4.86595812 0,5.03173334 C0,5.19750856 0.079856243,5.35366682 0.215727607,5.45370003 L6.21574344,9.9551104 C6.38085761,10.0782914 6.60378363,10.0994767 6.79026843,10.0097124 C6.97675323,9.9201628 7.09439822,9.73517042 7.09372445,9.53314707 L7.09372445,8.20913706 L14.7297941,8.20913706 C15.0310043,8.20913706 15.2753009,7.97216275 15.2753009,7.67971198 L15.2753009,2.38372786 C15.2753009,2.09127709 15.0310043,1.85430278 14.7297941,1.85408472 L7.09372445,1.85408472 L7.09372445,0.530298367 C7.09372445,0.38680431 7.03388554,0.249645148 6.92793651,0.149830002 C6.82198748,0.0500148554 6.67869312,-0.00392960635 6.53112579,0.000655225602 C6.51425445,-0.000218408534 6.49715852,-0.000218408534 6.48006202,0.000655225602 L6.48005741,0.000674235881 Z M6.00271092,1.61425552 L6.00271092,2.38372451 C6.00271092,2.67617528 6.24700756,2.91336765 6.54821769,2.91336765 L14.1842874,2.91336765 L14.1842874,7.15003193 L6.54821769,7.15003193 C6.24700756,7.15003193 6.00271092,7.38700624 6.00271092,7.67967508 L6.00271092,8.44914407 L1.44318262,5.03171097 L6.00271092,1.61425552 Z M17.3802244,7.94411924 C17.1091612,7.98146717 16.9087288,8.20795954 16.9114296,8.47376238 L16.9114296,9.79754873 L9.27535993,9.79754873 C8.9741498,9.79776718 8.72985316,10.0347411 8.72985316,10.3271919 L8.72985316,15.623176 C8.72985316,15.9156268 8.9741498,16.1526011 9.27535993,16.1526011 L15.2753758,16.1526011 C15.421371,16.1545667 15.5619645,16.0997463 15.6661168,16.0001498 C15.7700445,15.9007764 15.8285301,15.7649256 15.8285301,15.623176 C15.8285301,15.4812083 15.7700445,15.3453575 15.6661168,15.2459841 C15.5619645,15.1463926 15.421371,15.0915703 15.2753758,15.0935328 L9.82076879,15.0935328 L9.82076879,10.8568686 L17.4574143,10.8568686 C17.7586245,10.8568686 18.0026965,10.6196762 18.0026965,10.3272254 L18.0026965,9.54948137 L22.5709781,12.9752454 L18.0026965,16.3926785 L18.0026965,15.6232095 C18.004946,15.48146 17.9482587,15.3447369 17.8459037,15.2438315 C17.7433293,15.142708 17.6034095,15.0859231 17.4574143,15.0859231 C17.3114191,15.0859231 17.1715052,15.142708 17.068925,15.2438315 C16.9663506,15.3447369 16.9098863,15.48146 16.9119076,15.6232095 L16.9119076,17.4765999 C16.914382,17.6773149 17.0333821,17.8592544 17.2191874,17.9468359 C17.4049984,18.0344174 17.6258974,18.0125779 17.7896582,17.8902692 L23.7896741,13.3888588 C23.9223954,13.2886075 24,13.1344118 24,12.9710408 C24,12.8076698 23.9223897,12.6534741 23.7896741,12.5532228 L17.7896582,8.05158882 C17.67381,7.96378928 17.5264672,7.92491326 17.3806966,7.94413042 L17.3802244,7.94411924 Z" id="Shape"></path>
            </g>
        </g>
    </g>
</svg>