<?xml version="1.0" encoding="UTF-8"?>
<svg width="13px" height="26px" viewBox="0 0 13 26" version="1.1" xmlns="http://www.w3.org/2000/svg" xmlns:xlink="http://www.w3.org/1999/xlink">
    <title>setup_arms</title>
    <g id="Navigation-Pane" stroke="none" stroke-width="1" fill="none" fill-rule="evenodd">
        <g id="Group-29" transform="translate(-22.000000, -412.000000)">
            <g id="setup_arms" transform="translate(23.000000, 413.000000)">
                <path d="M3.54186335,22.388802 C3.54186335,23.2775828 2.81246292,23.9984823 1.9117173,24 C1.01097167,24.001513 0.279095981,23.2830619 0.276002775,22.3942963 C0.272929117,21.5055306 0.999802611,20.7821524 1.90053764,20.7775828 C1.87692522,20.8293572 1.85436224,20.8811316 1.8328487,20.9272108 C1.63450435,21.3683287 1.21367851,22.0771202 1.34433391,22.5322171 C1.42199255,22.8029972 1.92677366,23.0934516 2.21012273,23.0629047 C2.60313839,23.0199319 3.53556671,22.243316 3.53556671,22.243316 C3.54186335,22.2919839 3.54186335,22.3401341 3.54186335,22.388802 Z" id="Path" stroke="#C5C6C6" stroke-width="0.7"></path>
                <path d="M11.1587074,12.8483341 C11.1588453,13.2756084 10.9869216,13.6854296 10.6807712,13.9876067 C10.3746207,14.2897838 9.9593324,14.4595533 9.52630062,14.4595533 C9.50898484,14.4595533 9.49166907,14.4595533 9.47382857,14.4569646 C9.47907578,14.4424678 9.48327354,14.4290064 9.4874713,14.4155451 C9.59556373,14.0748695 9.9303354,13.4680736 9.89045665,13.117561 C9.86399947,12.8049055 9.59210724,12.5686205 9.27443478,12.5822137 C8.93599006,12.5961928 8.71560745,12.8612777 8.07754733,13.3070552 C7.98931714,13.1200083 7.93040086,12.9208201 7.9028154,12.7163094 C7.89127155,11.9200192 8.61118807,11.2355617 9.52630062,11.2355617 C9.95960537,11.2355617 10.3751325,11.405544 10.6813283,11.7080572 C10.9875241,12.0105703 11.1592632,12.4207908 11.1587074,12.8483341 L11.1587074,12.8483341 Z" id="Path" stroke="#C5C6C6" stroke-width="0.7"></path>
                <path d="M6.4871195,20.117977 C5.38520646,20.9981418 3.53714087,22.245387 3.53714087,22.245387 C3.53714087,22.245387 2.60471255,23.0220029 2.21169689,23.0649757 C1.92834783,23.0955225 1.42461615,22.8061037 1.34590807,22.5342881 C1.21525267,22.0776379 1.63607851,21.3688464 1.83442286,20.9292818 C1.8559364,20.8811316 1.87849938,20.8314282 1.9021118,20.7796538 C2.20067776,20.122119 2.64144298,19.195875 3.15776795,18.2970715 C3.37710112,18.8422559 3.69455702,19.3227223 4.15473689,19.7053351 C4.52204124,20.010804 5.29495453,20.2639808 6.00542609,20.2163484 C6.1691827,20.201231 6.33073482,20.1682389 6.4871195,20.117977 Z" id="Path" stroke="#C5C6C6" stroke-width="0.7"></path>
                <path d="M9.4874713,14.4155451 C9.48327354,14.4290064 9.47907578,14.4424678 9.47382857,14.4569646 C9.38357665,14.7355108 9.21146832,15.2180482 9.13538385,15.4764024 C8.96484969,16.0671483 8.55346882,17.3123225 8.27221863,17.8580247 L8.26015006,17.8808054 C8.41756621,16.1453276 7.19391801,14.3026769 7.19391801,14.3021591 C7.15264,14.2089652 7.11206161,14.1169794 7.07218286,14.0262016 C7.42322087,13.7699183 7.7695364,13.5229545 8.07754733,13.3070552 C8.71560745,12.8592067 8.93599006,12.5941218 9.27443478,12.5822137 C9.59249364,12.5683492 9.86478434,12.8050079 9.89098137,13.1180787 C9.9303354,13.4685914 9.59556373,14.0753873 9.4874713,14.4155451 Z" id="Path" stroke="#C5C6C6" stroke-width="0.7"></path>
                <path d="M2.23006211,3.85771041 C1.90207193,3.85791964 1.60626961,3.66310354 1.48065514,3.36414906 C1.35504068,3.06519458 1.42436679,2.72101162 1.65629092,2.49217108 C1.88821506,2.26333055 2.23703584,2.19492618 2.5400187,2.31887051 C2.84300156,2.44281483 3.04044278,2.73468425 3.04023073,3.05831357 C3.04023073,3.49980816 2.67750579,3.85771041 2.23006211,3.85771041 L2.23006211,3.85771041 Z" id="Path" stroke="#C5C6C6" stroke-width="0.7"></path>
                <path d="M7.19391801,14.3047479 C7.15264,14.2115539 7.11206161,14.1195681 7.07218286,14.0287903 C5.30754783,10.0338779 4.69887205,8.51222844 4.71094062,5.25976089 C4.71094062,4.75444278 4.66371578,2.75439786 3.84147876,1.71735671 C3.70819975,1.54960767 3.34666733,1.1400722 3.04023056,1.07846067 C2.93471809,1.0585415 2.82795246,1.04574082 2.72067578,1.04014761 L3.17823205,0.958861813 L3.14464994,0.561752196 L5.00163578,0.529652071 L5.00163578,0 L0,0.0911229369 L0,0.675655867 L0.873659627,0.675655867 L0.76084472,1.3885893 L1.18062112,1.31662289 C0.731460373,1.52941566 0.345266087,1.89287192 0.195196025,2.48465326 C0.0299090683,3.13545742 0.131180124,3.72257907 0.195196025,4.12797259 C0.270755776,4.58514051 0.642257888,5.44666645 0.805970683,5.88105364 C1.05836124,6.54997883 1.61351553,7.86970819 1.84229366,8.54691728 C2.04168745,9.13610991 2.32503652,10.3486663 2.45306832,10.9570154 C2.9184954,13.1631224 2.31769043,16.2074569 3.15776795,18.2955183 C3.37710112,18.8407027 3.69455702,19.3211691 4.15473689,19.7037819 C4.52204124,20.0092508 5.29495453,20.2624276 6.00542609,20.2147952 C6.16894565,20.2001447 6.33031843,20.1676741 6.48659478,20.117977 C6.84970137,20.0082153 7.25478559,19.8114726 7.50455255,19.5577781 C7.98991901,19.0654036 8.20610385,18.4808706 8.25962534,17.8833941 C8.41494261,16.1479164 7.19391801,14.3052656 7.19391801,14.3047479 Z M5.84538634,18.453948 C5.51744382,18.453948 5.22180253,18.2589989 5.09635344,17.9600278 C4.97090435,17.6610567 5.04036004,17.3169587 5.27232548,17.0882255 C5.50429091,16.8594924 5.85307052,16.791183 6.15598894,16.9151577 C6.45890735,17.0391324 6.65629176,17.3309691 6.65607967,17.6545513 C6.65578984,18.0961296 6.29291497,18.453948 5.84538634,18.453948 L5.84538634,18.453948 Z" id="Shape" stroke="#C5C6C6" stroke-width="0.7"></path>
                <path d="M6.6560795,17.6519626 C6.6560795,18.0937431 6.29311981,18.451877 5.84538634,18.451877 C5.39765286,18.451877 5.03469317,18.0937431 5.03469317,17.6519626 C5.03469317,17.210182 5.39765286,16.8520481 5.84538634,16.8520481 C6.29311981,16.8520481 6.6560795,17.210182 6.6560795,17.6519626 L6.6560795,17.6519626 Z" id="Path" stroke="#C5C6C6" stroke-width="0.7"></path>
                <path d="M10.2096092,16.7310298 C10.2091797,16.7336791 10.2091797,16.7363804 10.2096092,16.7390298 L10.2096092,16.7510298 C10.2106092,16.7460298 10.2096092,16.7360298 10.2096092,16.7310298 Z" id="Path" stroke="#C5C6C6" stroke-width="0.5" fill="#C5C6C6" fill-rule="nonzero"></path>
                <path d="M8.68779727,9.81228352 C7.14666677,9.81228352 5.89733366,8.5795612 5.89733366,7.05892114 C5.89733366,5.53828109 7.14666677,4.30555877 8.68779727,4.30555877 C10.2289278,4.30555877 11.4782609,5.53828109 11.4782609,7.05892114 C11.4765258,8.57885152 10.2282085,9.81057157 8.68779727,9.81228352 Z M8.68779727,4.80621718 C7.42689866,4.80621718 6.40473839,5.8147871 6.40473839,7.05892114 C6.40473839,8.30305519 7.42689866,9.31162511 8.68779727,9.31162511 C9.94869587,9.31162511 10.9708561,8.30305519 10.9708561,7.05892114 C10.9694104,5.81537848 9.94809652,4.80764375 8.68779727,4.80621718 Z" id="Shape" fill="#C5C6C6" fill-rule="nonzero"></path>
                <path d="M10.4818166,9.07915807 C10.414475,9.07915807 10.3499057,9.05269619 10.3023622,9.00563843 L6.71537292,5.46634072 C6.65126003,5.40317275 6.62617109,5.31105409 6.64955686,5.22468493 C6.67294263,5.13831578 6.74125026,5.07081768 6.82874891,5.0476165 C6.91624757,5.02441532 7.00964413,5.04903588 7.07375702,5.11220386 L10.6607463,8.65201931 C10.7328348,8.72366293 10.7543111,8.83099416 10.7152271,8.92429514 C10.676143,9.01759612 10.5841325,9.07864314 10.4818166,9.07915807 L10.4818166,9.07915807 Z" id="Path" fill="#C5C6C6" fill-rule="nonzero"></path>
            </g>
        </g>
    </g>
</svg>