<?xml version="1.0" encoding="UTF-8"?>
<svg width="24px" height="20px" viewBox="0 0 24 20" version="1.1" xmlns="http://www.w3.org/2000/svg" xmlns:xlink="http://www.w3.org/1999/xlink">
    <title>Speed Icon</title>
    <g id="Navigation-Pane" stroke="none" stroke-width="1" fill="none" fill-rule="evenodd">
        <g id="Group-29" transform="translate(-17.000000, -498.000000)" fill="#C5C6C6" fill-rule="nonzero">
            <g id="Speed-Icon" transform="translate(17.000000, 498.000000)">
                <path d="M16.3783975,6.37450228 C15.4802771,6.80070322 10.9605756,8.95886978 10.2521149,9.58768497 C9.32669458,10.4111346 9.24618302,11.8304063 10.0739818,12.7515568 C10.500945,13.2275136 11.1134859,13.5000684 11.7546993,13.5000684 C12.3085634,13.5000684 12.8411942,13.2976588 13.2542916,12.9303853 C13.9620325,12.3019793 16.6251866,8.07628805 17.152162,7.23560005 C17.2941472,7.00881122 17.2688421,6.71589271 17.0899069,6.51665451 C16.9105656,6.31764139 16.6215723,6.25969606 16.3783615,6.37438974 L16.3783975,6.37450228 Z M12.44896,12.0329694 C12.2573671,12.2030098 12.0109534,12.2967209 11.7542778,12.2967209 C11.4576548,12.2967209 11.1730624,12.1700371 10.9750738,11.9496423 C10.5918933,11.5228377 10.6290438,10.865674 11.0572152,10.484794 C11.3678994,10.2098504 13.1854249,9.27094995 14.9882465,8.38396912 C13.8999522,10.0664193 12.7582406,11.7580258 12.4489445,12.0329694 L12.44896,12.0329694 Z" id="Shape"></path>
                <path d="M12.0001311,0 C5.38337572,0 0,5.35615702 0,11.9394576 C0,14.7858272 1.02562279,17.5437033 2.88890522,19.7048879 C3.0071945,19.8421602 3.17649501,19.9148936 3.34840212,19.9148936 C3.45403885,19.9148936 3.5602771,19.887519 3.65607353,19.8307737 C5.80114645,18.5655727 8.84254037,17.8396194 12.0002802,17.8396194 C15.156889,17.8396194 18.1985399,18.5653681 20.3444869,19.8305691 C20.5971318,19.9790284 20.9208695,19.9264796 21.1116603,19.7046884 C22.9743258,17.5424808 24,14.7852697 24,11.9397697 C24,5.35595753 18.6166243,0.000312029012 12.000383,0.000312029012 L12.0001311,0 Z M20.5068004,18.5406616 C18.1990592,17.309835 15.2031137,16.6362616 12.0001311,16.6362616 C8.7966858,16.6362616 5.800329,17.3100396 3.49346176,18.5408662 C2.01674797,16.6596382 1.2092159,14.3342036 1.2092159,11.9396623 C1.2092159,6.01980692 6.04957554,1.20330664 12.0001311,1.20330664 C17.9495556,1.20330664 22.7905322,6.01939771 22.7905322,11.9396623 C22.7905322,14.3340501 21.9825888,16.6590755 20.5066976,18.5408662 L20.5068004,18.5406616 Z" id="Shape"></path>
                <path d="M12.0001311,4.2281519 C12.3341102,4.2281519 12.6048419,3.95880436 12.6048419,3.62649858 L12.6048419,2.03796399 C12.6048419,1.70567356 12.3341256,1.43651529 12.0001311,1.43651529 C11.6659515,1.43651529 11.3954203,1.70586282 11.3954203,2.03796399 L11.3954203,3.62649858 C11.3954203,3.95878902 11.6659361,4.2281519 12.0001311,4.2281519 Z" id="Path"></path>
                <path d="M18.9155916,11.1096704 C18.9155916,11.4419609 19.1863079,11.7113237 19.5203024,11.7113237 L21.1169095,11.7113237 C21.4510891,11.7113237 21.7216203,11.4419762 21.7216203,11.1096704 C21.7216203,10.7771805 21.450904,10.5080171 21.1169095,10.5080171 L19.5203024,10.5080171 C19.1863233,10.5080171 18.9155916,10.7771651 18.9155916,11.1096704 L18.9155916,11.1096704 Z" id="Path"></path>
                <path d="M5.08312824,11.1096704 C5.08312824,10.7771805 4.81241194,10.5080171 4.47821181,10.5080171 L2.88222163,10.5080171 C2.54804206,10.5080171 2.27751085,10.7773646 2.27751085,11.1096704 C2.27751085,11.4419762 2.54802664,11.7113237 2.88222163,11.7113237 L4.47821181,11.7113237 C4.81239138,11.7113237 5.08312824,11.4419762 5.08312824,11.1096704 Z" id="Path"></path>
                <path d="M18.2112439,6.87886393 C17.9224511,7.04570738 17.8246496,7.41396811 17.9927419,7.70108595 C18.1048051,7.89330605 18.3076419,8.00020924 18.5161185,8.00020924 C18.618943,8.00020924 18.7239782,7.97383409 18.819569,7.91868271 L20.1996791,7.12045111 C20.488472,6.95380716 20.5862735,6.58534693 20.4185822,6.29822909 C20.2508909,6.01089641 19.8805531,5.9133899 19.5917705,6.08043284 L18.2112439,6.87886393 Z" id="Path"></path>
                <path d="M5.20446113,14.3962055 L3.82496788,15.1936698 C3.53577403,15.3605133 3.43817303,15.728774 3.60586434,16.0163011 C3.7179276,16.2083217 3.92076431,16.3154243 4.12924095,16.3154243 C4.23286746,16.3154243 4.33710064,16.2892487 4.43269142,16.2338978 L5.81218466,15.4364335 C6.1009775,15.26959 6.19857849,14.9013293 6.03068668,14.6138023 C5.8635969,14.3266691 5.49286323,14.2291626 5.20449197,14.3962055 L5.20446113,14.3962055 Z" id="Path"></path>
                <path d="M15.473028,5.21539123 C15.5674157,5.26914206 15.6702402,5.29471821 15.7720621,5.29471821 C15.9821274,5.29471821 16.1861723,5.18562059 16.2978551,4.99100145 L17.0891409,3.61106593 C17.2548271,3.32253628 17.1536067,2.95508887 16.8634103,2.79042963 C16.5736149,2.62598522 16.2040997,2.72609027 16.0388094,3.0150189 L15.2475236,4.39495442 C15.0818374,4.68328457 15.1830578,5.05093148 15.4730537,5.21538611 L15.473028,5.21539123 Z" id="Path"></path>
                <path d="M8.10668211,3.03732642 C7.93939182,2.74959475 7.57045244,2.65088616 7.28048741,2.81753012 C6.99169457,2.98357559 6.89288538,3.35161125 7.05977466,3.63934292 L7.85784687,5.0140609 C7.96970962,5.20707898 8.17334837,5.31478014 8.38199466,5.31478014 C8.48421762,5.31478014 8.58864616,5.28860449 8.68384107,5.23385721 C8.97303492,5.06781174 9.07204462,4.69977607 8.90475433,4.41240247 L8.10668211,3.03732642 Z" id="Path"></path>
                <path d="M5.95507984,6.91313597 L4.57075385,6.12247491 C4.28155999,5.95722742 3.91185457,6.0561355 3.74553597,6.34467026 C3.57944873,6.63280092 3.67885944,7.0002381 3.96865481,7.16571578 L5.3533921,7.95637683 C5.4483865,8.01072615 5.551612,8.03650179 5.65403546,8.03650179 C5.86349922,8.03650179 6.06693745,7.92820215 6.17880021,7.7343861 C6.34488745,7.44645493 6.24487522,7.07861365 5.9550747,6.91313597 L5.95507984,6.91313597 Z" id="Path"></path>
                <path d="M20.3864958,15.1496788 L19.0031981,14.3598362 C18.7144052,14.1947882 18.3436818,14.2938958 18.1783915,14.5820316 C18.0119032,14.8703617 18.112116,15.2380086 18.4013098,15.4032817 L19.7846076,16.1931243 C19.879602,16.2470746 19.9832285,16.2726508 20.0852509,16.2726508 C20.2947147,16.2726508 20.4985591,16.1643511 20.6100157,15.9705351 C20.7763034,15.6826039 20.6760907,15.3147626 20.3864907,15.1496942 L20.3864958,15.1496788 Z" id="Path"></path>
            </g>
        </g>
    </g>
</svg>