<?xml version="1.0" encoding="UTF-8"?>
<svg width="24px" height="17px" viewBox="0 0 24 17" version="1.1" xmlns="http://www.w3.org/2000/svg" xmlns:xlink="http://www.w3.org/1999/xlink">
    <title>torque</title>
    <g id="Navigation-Pane" stroke="none" stroke-width="1" fill="none" fill-rule="evenodd">
        <g id="Group-29" transform="translate(-17.000000, -540.000000)" fill="#C5C6C6" fill-rule="nonzero">
            <g id="torque" transform="translate(17.000000, 540.000000)">
                <path d="M23.2686981,6.75912069 C22.9976275,6.2805846 22.843846,5.74470582 22.8199446,5.19536052 C22.734072,3.83641142 22.8199446,2.50237177 23.3933518,1.24029277 C23.572252,0.90515408 23.7749886,0.583272477 24,0.277127212 C21.8116343,-0.118656335 18.0055402,-0.0965145984 15.8781163,0.382300462 C11.8615918,1.22821015 9.12003293,4.95116371 9.50692521,9.03418415 C9.79224377,12.3969604 12.1883657,15.0207563 15.4210526,15.9174966 C16.6785668,16.2755631 18.0111839,16.2755631 19.2686981,15.9174966 C21.9418283,15.2560122 23.4432133,13.2853976 23.9307479,10.5924089 C23.9501385,10.4955388 24.0415512,8.87088884 23.800554,8.14574696 C23.6686767,7.66740459 23.490553,7.20301009 23.2686981,6.75912069 Z M10.9833795,11.9845706 C9.33518006,9.23069207 9.70914127,5.90943153 11.9113573,3.81980511 C12.9357979,2.84355262 14.212752,2.17255006 15.598338,1.88240314 C16.3541226,1.71699546 17.1240295,1.62431481 17.8975069,1.60563142 C19.3383921,1.55959463 20.7799993,1.67096389 22.1966759,1.93775748 C22.3240997,1.96266693 22.4487535,2.00695041 22.5152355,2.02355671 C22.2232697,3.06425092 22.1228414,4.149263 22.2188366,5.22580541 C20.9504137,3.88537618 19.166464,3.15446054 17.3213296,3.2192105 C15.8893797,3.24528227 14.5101027,3.76329107 13.4155125,4.68610057 C12.112896,5.73279377 11.2782476,7.25238746 11.0941828,8.9124046 C10.8910433,10.5564877 11.3153491,12.2166854 12.2825485,13.5621693 C11.7617861,13.1149885 11.3222655,12.5812727 10.9833795,11.9845706 Z M17.5290859,15.6324321 C15.1173593,15.6369004 12.9407689,14.1883551 12.01551,11.963075 C11.090251,9.73779497 11.5988169,7.17468317 13.3037709,5.47039189 C15.008725,3.76610061 17.5737908,3.25677565 19.8014038,4.180208 C22.0290168,5.10364035 23.4798138,7.27769686 23.4764601,9.68736539 C23.4734028,12.9683853 20.8129088,15.627845 17.5290859,15.6324321 Z" id="Shape"></path>
                <path d="M11.4930748,14.3039175 C8.98614958,13.6562717 5.50692521,12.4135667 2.57617729,13.0888897 C2.46931778,13.1226946 2.36475955,13.1633728 2.26315789,13.2106693 C2.64265928,12.4550825 4.17174515,11.4310272 5.50692521,11.0463145 C5.47883642,11.0159137 5.44721884,10.9889688 5.41274238,10.9660507 C2.54847645,9.64584963 0.808864266,7.42337279 0.0997229917,4.37058082 C0.0747922438,4.26540757 0.0332409972,4.16576975 0,4.06336422 L0,3.87515946 C1.03117671,4.60794851 2.17959689,5.16014197 3.39612188,5.50811255 C4.31301939,5.74060079 5.23268698,5.807026 6.13296399,5.42231332 C6.32409972,5.34204952 6.50138504,5.23134084 6.68698061,5.13170302 C6.17174515,4.76359665 5.66204986,4.4314706 5.19113573,4.05229335 C4.72022161,3.67311611 4.30470914,3.25795854 3.8531856,2.84833641 C4.39058172,2.84833641 4.88919668,2.87601358 5.38504155,2.84833641 C6.73501124,2.72214744 8.0533043,2.3654732 9.28254848,1.79383619 C10.3905817,1.32055656 11.567867,1.24029277 12.7534626,1.07146202 C12.2216066,1.48938731 11.7174515,1.90177716 11.2022161,2.28925755 C11.0936838,2.34495687 10.9766892,2.38236316 10.8559557,2.39996624 C9.71118829,2.71356129 8.60889464,3.16525509 7.5734072,3.74507675 C8.12742382,3.84194685 8.61218837,3.9139075 9.02216066,4.33183278 C6.80609418,7.04142783 4.86703601,6.922416 2.1634349,6.46574267 C2.23822715,6.68992776 2.28254848,6.87813252 2.3601108,7.0524987 C2.74966404,7.87386412 3.33339878,8.58818593 4.06094183,9.13382197 C5.35457064,10.1772513 6.83102493,10.8498066 8.39058172,11.4116531 L8.74238227,11.5445036 L6.83102493,12.0482281 C6.63157895,12.1201887 6.62603878,12.1008147 6.83102493,12.1755431 L8.73684211,12.7290865 C8.8531856,12.7622991 8.97783934,12.7844408 9.09141274,12.8176534 C10.3628809,13.2023661 10.6481994,13.3961063 11.4930748,14.3039175 Z" id="Path"></path>
                <path d="M16.3767313,15.0318271 C16.2686981,15.0152208 16.1772853,15.0096854 16.099723,14.9875437 C15.0903626,14.714497 14.1783611,14.1629676 13.468144,13.3961063 C13.331349,13.2814913 13.2973903,13.0849332 13.3878116,12.9311298 C13.8090142,11.9061079 14.5805413,11.0636452 15.565097,10.5536608 C15.7977839,10.8304326 16,11.0518499 16.1939058,11.2898736 C16.2465341,11.3512511 16.2733379,11.4306019 16.2686981,11.511291 C15.9362881,13.3352165 15.9362881,13.3352165 16.3767313,15.0318271 Z" id="Path"></path>
                <path d="M22.9030471,10.7557042 C22.7675181,11.583199 22.415889,12.3603231 21.8836565,13.0086259 C20.9307479,14.1295514 21.1883657,14.0880356 19.9141274,13.3324488 C19.2477683,12.9328329 18.7177094,12.3414875 18.3933518,11.6358382 C18.6315789,11.4393303 18.8559557,11.2483578 19.0886427,11.0656885 C19.1450602,11.0211954 19.2165774,11.000354 19.2880886,11.0075665 C20.4904521,11.2955233 21.7523194,11.2076062 22.9030471,10.7557042 Z" id="Path"></path>
                <path d="M18.4127424,7.489798 C18.4127424,7.56175865 18.3711911,7.63371929 18.3545706,7.69460907 C18.0055402,7.65586103 17.6980609,7.62818386 17.3933518,7.58390038 C17.3118478,7.57320274 17.2380248,7.53034222 17.1883657,7.46488855 C16.5613804,6.46569411 15.655187,5.67188861 14.5817175,5.18152193 C14.5466399,5.15723425 14.5141518,5.12941109 14.4847645,5.09849042 C15.3413613,4.51616068 16.351768,4.20115991 17.3878116,4.19344692 C18.1301939,4.19344692 17.966759,4.08550596 18.2022161,4.77743523 C18.508274,5.64766932 18.5808581,6.58282268 18.4127424,7.489798 Z" id="Path"></path>
                <path d="M22.9916928,9.93369221 C22.9921313,10.0355197 22.9450114,10.131726 22.8642659,10.1938576 C21.80712,10.6520224 20.6322659,10.7653396 19.5069252,10.5176805 C19.5457064,10.1551096 19.5734072,9.83958983 19.6149584,9.5268378 C19.6259449,9.4550289 19.6647468,9.39041429 19.7229917,9.34693618 C20.7655005,8.69354193 21.586939,7.74164136 22.0803324,6.6151994 C22.4952684,7.19097408 22.7737551,7.85347137 22.8947368,8.55260137 C22.9547525,9.01060506 22.9871287,9.47180224 22.9916928,9.93369221 Z" id="Path"></path>
                <path d="M15.5124654,8.9124046 C15.4875346,9.25560152 15.468144,9.57112127 15.434903,9.88664102 C15.4256867,9.96777862 15.3810801,10.0407088 15.3130194,10.0859167 C14.2412112,10.6553514 13.3959381,11.5731296 12.9168975,12.6875707 C12.2641846,11.6927711 11.9566356,10.5112744 12.0415512,9.32479445 C12.05411,9.2426735 12.1029235,9.17053192 12.1745152,9.12828653 C13.2223299,8.64703798 14.411299,8.5701414 15.5124654,8.9124046 L15.5124654,8.9124046 Z" id="Path"></path>
                <path d="M20.4819945,14.2983821 C19.9278713,14.6828791 19.2963258,14.941705 18.6315789,15.0567366 C18.1624849,15.1210512 17.6895563,15.1534159 17.2160665,15.1536067 C17.100793,15.1441067 16.9974028,15.0790265 16.9390582,14.9792405 C16.4976927,13.99269 16.4096588,12.8844095 16.6897507,11.8406493 C16.7070399,11.7896519 16.7273908,11.7397425 16.7506925,11.6911926 C17.0941828,11.716102 17.4099723,11.7327083 17.7257618,11.7686887 C17.8059205,11.7826389 17.8769346,11.8286087 17.9224377,11.8960036 C18.4681786,12.9316478 19.3461068,13.7542461 20.4155125,14.2319569 C20.4404432,14.24026 20.4515235,14.2624018 20.4819945,14.2983821 Z" id="Path"></path>
                <path d="M16.6980609,7.68077048 C16.4210526,7.92709731 16.1440443,8.15958554 15.867036,8.3782352 C15.8084226,8.42214707 15.7331509,8.43739181 15.6620499,8.41975095 C14.5426591,8.06824927 13.3373196,8.10432981 12.2409972,8.52215649 C12.2097999,8.52712493 12.1780118,8.52712493 12.1468144,8.52215649 C12.166205,8.42251867 12.1772853,8.32841629 12.2022161,8.24538477 C12.4610566,7.25356946 13.0028951,6.35832819 13.7617729,5.66864014 C13.8615154,5.58033266 13.9962744,5.54259156 14.1274238,5.56623461 C15.1374308,5.96121612 16.0058034,6.64953666 16.6204986,7.54238463 C16.6537396,7.59773897 16.6814404,7.65586103 16.6980609,7.68077048 Z" id="Path"></path>
                <path d="M21.6481994,6.28307334 C21.2279877,7.34710815 20.4838048,8.25233822 19.5207756,8.87088884 C19.299169,8.59411713 19.0941828,8.35332574 18.900277,8.1042312 C18.8582414,8.04480144 18.8413234,7.97122127 18.8531856,7.89942014 C19.1379571,6.70221335 19.0490218,5.44659153 18.598338,4.30138789 C18.7451524,4.32906506 18.8504155,4.34567136 18.9501385,4.37058082 C19.9502867,4.6322732 20.8529137,5.17838642 21.5484765,5.94264414 C21.6332111,6.03427227 21.6701161,6.16025686 21.6481994,6.28307334 L21.6481994,6.28307334 Z" id="Path"></path>
            </g>
        </g>
    </g>
</svg>