<svg id="Layer_1" data-name="Layer 1" xmlns="http://www.w3.org/2000/svg" viewBox="0 0 86.64 58.46"><path d="M84,24.42a12.58,12.58,0,0,1-1.62-5.65c-.31-4.91,0-9.73,2.07-14.29A28.69,28.69,0,0,1,86.64,1C78.74-.43,65-.35,57.32,1.38a29.14,29.14,0,0,0-23,31.26C35.35,44.79,44,54.27,55.67,57.51a25.34,25.34,0,0,0,13.89,0C79.21,55.12,84.63,48,86.39,38.27c.07-.35.4-6.22-.47-8.84A27.65,27.65,0,0,0,84,24.42ZM39.65,43.3C33.7,33.35,35.05,21.35,43,13.8a27.44,27.44,0,0,1,13.31-7,43.73,43.73,0,0,1,8.3-1A71.46,71.46,0,0,1,80.13,7c.46.09.91.25,1.15.31a32.26,32.26,0,0,0-1.07,11.57,23.21,23.21,0,0,0-17.68-7.25,22.5,22.5,0,0,0-14.1,5.3,22.82,22.82,0,0,0-8.38,15.27A23.8,23.8,0,0,0,44.34,49,21.52,21.52,0,0,1,39.65,43.3ZM63.28,56.48A21.51,21.51,0,1,1,84.75,35,21.5,21.5,0,0,1,63.28,56.48Z"/><path d="M41.49,51.68c-9.05-2.34-21.61-6.83-32.19-4.39a9.38,9.38,0,0,0-1.13.44C9.54,45,15.06,41.3,19.88,39.91a1.88,1.88,0,0,0-.34-.29C9.2,34.85,2.92,26.82.36,15.79c-.09-.38-.24-.74-.36-1.11V14a40.28,40.28,0,0,0,12.26,5.9c3.31.84,6.63,1.08,9.88-.31.69-.29,1.33-.69,2-1.05-1.86-1.33-3.7-2.53-5.4-3.9s-3.2-2.87-4.83-4.35c1.94,0,3.74.1,5.53,0A42.79,42.79,0,0,0,33.51,6.48c4-1.71,8.25-2,12.53-2.61-1.92,1.51-3.74,3-5.6,4.4a4,4,0,0,1-1.25.4,52.79,52.79,0,0,0-11.85,4.86c2,.35,3.75.61,5.23,2.12-8,9.79-15,9.36-24.76,7.71.27.81.43,1.49.71,2.12A20.24,20.24,0,0,0,14.66,33c4.67,3.77,10,6.2,15.63,8.23l1.27.48-6.9,1.82c-.72.26-.74.19,0,.46l6.88,2c.42.12.87.2,1.28.32C37.41,47.7,38.44,48.4,41.49,51.68Z"/><path d="M59.12,54.31c-.39-.06-.72-.08-1-.16a20.1,20.1,0,0,1-9.5-5.75,1.32,1.32,0,0,1-.29-1.68,16.91,16.91,0,0,1,7.86-8.59c.84,1,1.57,1.8,2.27,2.66a1.13,1.13,0,0,1,.27.8C57.53,48.18,57.53,48.18,59.12,54.31Z"/><path d="M82.68,38.86A17.22,17.22,0,0,1,79,47c-3.44,4.05-2.51,3.9-7.11,1.17a13.93,13.93,0,0,1-5.49-6.13c.86-.71,1.67-1.4,2.51-2.06a1,1,0,0,1,.72-.21A21.79,21.79,0,0,0,82.68,38.86Z"/><path d="M66.47,27.06c0,.26-.15.52-.21.74-1.26-.14-2.37-.24-3.47-.4a1.11,1.11,0,0,1-.74-.43,21.81,21.81,0,0,0-9.41-8.25,2.25,2.25,0,0,1-.35-.3,18.88,18.88,0,0,1,10.48-3.27c2.68,0,2.09-.39,2.94,2.11A19.08,19.08,0,0,1,66.47,27.06Z"/><path d="M83,35.89a1.18,1.18,0,0,1-.46.94A19.77,19.77,0,0,1,70.42,38c.14-1.31.24-2.45.39-3.58a1,1,0,0,1,.39-.65,22.12,22.12,0,0,0,8.51-9.87,16.91,16.91,0,0,1,2.94,7A41.6,41.6,0,0,1,83,35.89Z"/><path d="M56,32.2c-.09,1.24-.16,2.38-.28,3.52a1,1,0,0,1-.44.72,19.25,19.25,0,0,0-8.65,9.4,19.61,19.61,0,0,1-3.16-12.15,1,1,0,0,1,.48-.71A16.86,16.86,0,0,1,56,32.2Z"/><path d="M73.94,51.66a16.71,16.71,0,0,1-6.68,2.74,37.7,37.7,0,0,1-5.11.35,1.28,1.28,0,0,1-1-.63,17,17,0,0,1-.9-11.34,4.84,4.84,0,0,1,.22-.54c1.24.09,2.38.15,3.52.28a1.08,1.08,0,0,1,.71.46,18.88,18.88,0,0,0,9,8.44C73.79,51.45,73.83,51.53,73.94,51.66Z"/><path d="M60.28,27.75c-1,.89-2,1.73-3,2.52a.88.88,0,0,1-.74.15,18.82,18.82,0,0,0-12.35.37,1.08,1.08,0,0,1-.34,0c.07-.36.11-.7.2-1a19.1,19.1,0,0,1,5.63-9.31A1.57,1.57,0,0,1,51,20.11a19.59,19.59,0,0,1,9,7.14C60.12,27.45,60.22,27.66,60.28,27.75Z"/><path d="M78.15,22.7a19.72,19.72,0,0,1-7.68,9.35c-.8-1-1.54-1.87-2.24-2.77a1,1,0,0,1-.17-.74,21.77,21.77,0,0,0-.92-13c.53.1.91.16,1.27.25a19.28,19.28,0,0,1,9.38,5.68A1.44,1.44,0,0,1,78.15,22.7Z"/></svg>